  0
SECTION
  2
HEADER
  9
$ACADVER
  1
AC1014
  9
$HANDSEED
  5
FFFF
  9
$MEASUREMENT
 70
     1
  0
ENDSEC
  0
SECTION
  2
TABLES
  0
TABLE
  2
VPORT
  5
8
330
0
100
AcDbSymbolTable
 70
     4
  0
VPORT
  5
2E
330
8
100
AcDbSymbolTableRecord
100
AcDbViewportTableRecord
  2
*ACTIVE
 70
     0
 10
0.0
 20
0.0
 11
1.0
 21
1.0
 12
210.0
 22
148.5
 13
0.0
 23
0.0
 14
10.0
 24
10.0
 15
10.0
 25
10.0
 16
0.0
 26
0.0
 36
1.0
 17
0.0
 27
0.0
 37
0.0
 40
341.0
 41
1.24
 42
50.0
 43
0.0
 44
0.0
 50
0.0
 51
0.0
 71
     0
 72
   100
 73
     1
 74
     3
 75
     0
 76
     0
 77
     0
 78
     0
  0
ENDTAB
  0
TABLE
  2
LTYPE
  5
5
330
0
100
AcDbSymbolTable
 70
     1
  0
LTYPE
  5
14
330
5
100
AcDbSymbolTableRecord
100
AcDbLinetypeTableRecord
  2
BYBLOCK
 70
     0
  3

 72
    65
 73
     0
 40
0.0
  0
LTYPE
  5
15
330
5
100
AcDbSymbolTableRecord
100
AcDbLinetypeTableRecord
  2
BYLAYER
 70
     0
  3

 72
    65
 73
     0
 40
0.0
  0
LTYPE
  5
16
330
5
100
AcDbSymbolTableRecord
100
AcDbLinetypeTableRecord
  2
CONTINUOUS
 70
     0
  3
Solid line
 72
    65
 73
     0
 40
0.0
  0
ENDTAB
  0
TABLE
  2
LAYER
  5
2
100
AcDbSymbolTable
 70
2
  0
LAYER
  5
50
100
AcDbSymbolTableRecord
100
AcDbLayerTableRecord
  2
0
 70
0
  6
CONTINUOUS
  0
LAYER
  5
51
100
AcDbSymbolTableRecord
100
AcDbLayerTableRecord
  2
1._réteg
 70
0
  6
CONTINUOUS
  0
ENDTAB
  0
TABLE
  2
STYLE
  5
3
330
0
100
AcDbSymbolTable
 70
     1
  0
STYLE
  5
11
330
3
100
AcDbSymbolTableRecord
100
AcDbTextStyleTableRecord
  2
STANDARD
 70
     0
 40
0.0
 41
1.0
 50
0.0
 71
     0
 42
2.5
  3
txt
  4

  0
ENDTAB
  0
TABLE
  2
VIEW
  5
6
330
0
100
AcDbSymbolTable
 70
     0
  0
ENDTAB
  0
TABLE
  2
UCS
  5
7
330
0
100
AcDbSymbolTable
 70
     0
  0
ENDTAB
  0
TABLE
  2
APPID
  5
9
330
0
100
AcDbSymbolTable
 70
     2
  0
APPID
  5
12
330
9
100
AcDbSymbolTableRecord
100
AcDbRegAppTableRecord
  2
ACAD
 70
     0
  0
ENDTAB
  0
TABLE
  2
DIMSTYLE
  5
A
330
0
100
AcDbSymbolTable
 70
     1
  0
DIMSTYLE
105
27
330
A
100
AcDbSymbolTableRecord
100
AcDbDimStyleTableRecord
  2
ISO-25
 70
     0
  3

  4

  5

  6

  7

 40
1.0
 41
2.5
 42
0.625
 43
3.75
 44
1.25
 45
0.0
 46
0.0
 47
0.0
 48
0.0
140
2.5
141
2.5
142
0.0
143
0.03937007874016
144
1.0
145
0.0
146
1.0
147
0.625
 71
     0
 72
     0
 73
     0
 74
     0
 75
     0
 76
     0
 77
     1
 78
     8
170
     0
171
     3
172
     1
173
     0
174
     0
175
     0
176
     0
177
     0
178
     0
270
     2
271
     2
272
     2
273
     2
274
     3
340
11
275
     0
280
     0
281
     0
282
     0
283
     0
284
     8
285
     0
286
     0
287
     3
288
     0
  0
ENDTAB
  0
TABLE
  2
BLOCK_RECORD
  5
1
330
0
100
AcDbSymbolTable
 70
     1
  0
BLOCK_RECORD
  5
1F
330
1
100
AcDbSymbolTableRecord
100
AcDbBlockTableRecord
  2
*MODEL_SPACE
  0
BLOCK_RECORD
  5
1B
330
1
100
AcDbSymbolTableRecord
100
AcDbBlockTableRecord
  2
*PAPER_SPACE
  0
ENDTAB
  0
ENDSEC
  0
SECTION
  2
BLOCKS
  0
BLOCK
  5
20
330
1F
100
AcDbEntity
  8
0
100
AcDbBlockBegin
  2
*MODEL_SPACE
 70
     0
 10
0.0
 20
0.0
 30
0.0
  3
*MODEL_SPACE
  1

  0
ENDBLK
  5
21
330
1F
100
AcDbEntity
  8
0
100
AcDbBlockEnd
  0
BLOCK
  5
1C
330
1B
100
AcDbEntity
 67
     1
  8
0
100
AcDbBlockBegin
  2
*PAPER_SPACE
  1

  0
ENDBLK
  5
1D
330
1B
100
AcDbEntity
 67
     1
  8
0
100
AcDbBlockEnd
  0
ENDSEC
  0
SECTION
  2
ENTITIES
  0
LWPOLYLINE
  5
100
100
AcDbEntity
  8
1._réteg
 62
7
100
AcDbPolyline
 90
44
 70
0
 10
13.005324
 20
20.943192
 30
0.0
 10
11.917151
 20
20.818080
 30
0.0
 10
10.876338
 20
20.484976
 30
0.0
 10
9.919678
 20
19.957567
 30
0.0
 10
9.083976
 20
19.249548
 30
0.0
 10
8.802978
 20
19.043258
 30
0.0
 10
8.534644
 20
19.263103
 30
0.0
 10
7.489434
 20
20.134586
 30
0.0
 10
6.249079
 20
20.687149
 30
0.0
 10
4.905232
 20
20.919759
 30
0.0
 10
3.549550
 20
20.831395
 30
0.0
 10
2.499193
 20
20.346007
 30
0.0
 10
1.605573
 20
19.623809
 30
0.0
 10
0.879957
 20
18.723723
 30
0.0
 10
0.333612
 20
17.704681
 30
0.0
 10
0.084488
 20
17.036971
 30
0.0
 10
-0.000000
 20
16.331579
 30
0.0
 10
0.079976
 20
14.901494
 30
0.0
 10
0.567836
 20
13.410173
 30
0.0
 10
1.339749
 20
12.039987
 30
0.0
 10
1.744727
 20
11.820401
 30
0.0
 10
2.202575
 20
11.748256
 30
0.0
 10
3.146017
 20
11.718668
 30
0.0
 10
4.347062
 20
11.671221
 30
0.0
 10
5.145590
 20
10.412408
 30
0.0
 10
7.006775
 20
19.078451
 30
0.0
 10
7.304040
 20
18.151650
 30
0.0
 10
7.498914
 20
17.116637
 30
0.0
 10
8.991768
 20
9.275640
 30
0.0
 10
9.444616
 20
10.461839
 30
0.0
 10
9.839112
 20
11.671221
 30
0.0
 10
13.322330
 20
11.811689
 30
0.0
 10
15.188019
 20
12.709243
 30
0.0
 10
17.119999
 20
13.442625
 30
0.0
 10
17.519973
 20
14.789816
 30
0.0
 10
17.632320
 20
16.186983
 30
0.0
 10
17.594164
 20
16.966895
 30
0.0
 10
17.365411
 20
17.706253
 30
0.0
 10
16.589605
 20
19.061484
 30
0.0
 10
15.885833
 20
19.844724
 30
0.0
 10
15.026712
 20
20.446086
 30
0.0
 10
14.052969
 20
20.825570
 30
0.0
 10
13.005324
 20
20.943192
 30
0.0
 10
13.005324
 20
20.943192
 30
0.0
  0
LWPOLYLINE
  5
101
100
AcDbEntity
  8
1._réteg
 62
7
100
AcDbPolyline
 90
35
 70
1
 10
6.385940
 20
13.236781
 30
0.0
 10
5.478807
 20
9.207545
 30
0.0
 10
4.961172
 20
9.708538
 30
0.0
 10
4.515839
 20
10.341000
 30
0.0
 10
3.953365
 20
11.069314
 30
0.0
 10
2.226467
 20
11.160080
 30
0.0
 10
2.206610
 20
10.811327
 30
0.0
 10
2.477069
 20
10.484604
 30
0.0
 10
3.127214
 20
9.870852
 30
0.0
 10
5.346992
 20
7.880929
 30
0.0
 10
6.540857
 20
6.990303
 30
0.0
 10
7.813157
 20
6.216396
 30
0.0
 10
8.643650
 20
5.893627
 30
0.0
 10
9.071772
 20
5.883552
 30
0.0
 10
9.488341
 20
6.061385
 30
0.0
 10
10.844879
 20
6.800667
 30
0.0
 10
12.100234
 20
7.694851
 30
0.0
 10
14.377666
 20
9.779632
 30
0.0
 10
15.679153
 20
11.171840
 30
0.0
 10
16.262478
 20
11.922481
 30
0.0
 10
16.746885
 20
12.677363
 30
0.0
 10
15.137137
 20
12.113449
 30
0.0
 10
13.570188
 20
11.378410
 30
0.0
 10
12.154802
 20
11.208425
 30
0.0
 10
10.723630
 20
11.163249
 30
0.0
 10
10.379268
 20
11.160427
 30
0.0
 10
10.225085
 20
11.133051
 30
0.0
 10
10.135886
 20
11.011665
 30
0.0
 10
8.737212
 20
7.788975
 30
0.0
 10
8.486889
 20
8.544382
 30
0.0
 10
8.337509
 20
9.409235
 30
0.0
 10
7.735453
 20
12.734758
 30
0.0
 10
7.456829
 20
14.464555
 30
0.0
 10
7.034119
 20
16.789338
 30
0.0
 10
6.385940
 20
13.236781
 30
0.0
  0
LWPOLYLINE
  5
102
100
AcDbEntity
  8
1._réteg
 62
7
100
AcDbPolyline
 90
10
 70
0
 10
9.001327
 20
4.188567
 30
0.0
 10
9.001327
 20
3.895841
 30
0.0
 10
9.023820
 20
3.581581
 30
0.0
 10
9.188296
 20
3.567865
 30
0.0
 10
9.330251
 20
3.577658
 30
0.0
 10
9.339056
 20
3.883110
 30
0.0
 10
9.347862
 20
4.188562
 30
0.0
 10
9.174575
 20
4.188562
 30
0.0
 10
9.001290
 20
4.188562
 30
0.0
 10
9.001327
 20
4.188567
 30
0.0
  0
LWPOLYLINE
  5
103
100
AcDbEntity
  8
1._réteg
 62
7
100
AcDbPolyline
 90
10
 70
0
 10
9.502585
 20
4.188567
 30
0.0
 10
9.502585
 20
2.559490
 30
0.0
 10
9.502585
 20
0.930410
 30
0.0
 10
9.674890
 20
0.930410
 30
0.0
 10
9.847198
 20
0.930410
 30
0.0
 10
9.847198
 20
2.559490
 30
0.0
 10
9.847198
 20
4.188567
 30
0.0
 10
9.674890
 20
4.188567
 30
0.0
 10
9.502585
 20
4.188567
 30
0.0
 10
9.502585
 20
4.188567
 30
0.0
  0
LWPOLYLINE
  5
104
100
AcDbEntity
  8
1._réteg
 62
7
100
AcDbPolyline
 90
36
 70
0
 10
6.446104
 20
4.185632
 30
0.0
 10
6.379045
 20
4.170819
 30
0.0
 10
6.354077
 20
4.120041
 30
0.0
 10
6.345271
 20
2.496837
 30
0.0
 10
6.354077
 20
0.946079
 30
0.0
 10
6.534213
 20
0.936286
 30
0.0
 10
6.714356
 20
0.927481
 30
0.0
 10
6.715203
 20
1.108597
 30
0.0
 10
6.716049
 20
1.290693
 30
0.0
 10
6.785561
 20
1.207476
 30
0.0
 10
7.035778
 20
1.017440
 30
0.0
 10
7.332829
 20
0.900069
 30
0.0
 10
7.631194
 20
0.877414
 30
0.0
 10
7.910657
 20
0.909909
 30
0.0
 10
8.165982
 20
0.993722
 30
0.0
 10
8.391933
 20
1.125020
 30
0.0
 10
8.583275
 20
1.299974
 30
0.0
 10
8.734772
 20
1.514751
 30
0.0
 10
8.841190
 20
1.765521
 30
0.0
 10
8.897291
 20
2.048451
 30
0.0
 10
8.897450
 20
2.249750
 30
0.0
 10
8.843446
 20
2.471386
 30
0.0
 10
8.725477
 20
2.749103
 30
0.0
 10
8.561176
 20
2.978233
 30
0.0
 10
8.348571
 20
3.160756
 30
0.0
 10
8.085691
 20
3.298653
 30
0.0
 10
7.758901
 20
3.381997
 30
0.0
 10
7.430825
 20
3.376886
 30
0.0
 10
7.121791
 20
3.286400
 30
0.0
 10
6.852131
 20
3.113617
 30
0.0
 10
6.715073
 20
2.994177
 30
0.0
 10
6.707255
 20
3.583542
 30
0.0
 10
6.698450
 20
4.172910
 30
0.0
 10
6.534959
 20
4.182703
 30
0.0
 10
6.445864
 20
4.185638
 30
0.0
 10
6.446104
 20
4.185632
 30
0.0
  0
LWPOLYLINE
  5
105
100
AcDbEntity
  8
1._réteg
 62
7
100
AcDbPolyline
 90
51
 70
0
 10
13.764230
 20
3.404382
 30
0.0
 10
13.428758
 20
3.333703
 30
0.0
 10
13.115142
 20
3.195851
 30
0.0
 10
12.979057
 20
3.105785
 30
0.0
 10
12.795929
 20
2.917398
 30
0.0
 10
12.613890
 20
2.629002
 30
0.0
 10
12.539853
 20
2.425565
 30
0.0
 10
12.526754
 20
2.118939
 30
0.0
 10
12.542280
 20
1.810700
 30
0.0
 10
12.620739
 20
1.603976
 30
0.0
 10
12.788158
 20
1.348202
 30
0.0
 10
13.002461
 20
1.137110
 30
0.0
 10
13.247405
 20
0.983474
 30
0.0
 10
13.506745
 20
0.900066
 30
0.0
 10
13.976356
 20
0.883787
 30
0.0
 10
14.386880
 20
1.000904
 30
0.0
 10
14.696922
 20
1.240205
 30
0.0
 10
14.891070
 20
1.475726
 30
0.0
 10
14.938063
 20
1.556983
 30
0.0
 10
14.986067
 20
1.611852
 30
0.0
 10
14.978900
 20
1.651009
 30
0.0
 10
14.799046
 20
1.682301
 30
0.0
 10
14.646408
 20
1.671373
 30
0.0
 10
14.594429
 20
1.627474
 30
0.0
 10
14.339887
 20
1.344541
 30
0.0
 10
14.100801
 20
1.232271
 30
0.0
 10
13.787723
 20
1.203562
 30
0.0
 10
13.535899
 20
1.218887
 30
0.0
 10
13.364790
 20
1.290690
 30
0.0
 10
13.108536
 20
1.479818
 30
0.0
 10
12.944795
 20
1.729291
 30
0.0
 10
12.871984
 20
1.935735
 30
0.0
 10
12.848512
 20
2.144573
 30
0.0
 10
12.874402
 20
2.350629
 30
0.0
 10
12.949678
 20
2.548723
 30
0.0
 10
13.138094
 20
2.808581
 30
0.0
 10
13.418627
 20
2.989278
 30
0.0
 10
13.699062
 20
3.070422
 30
0.0
 10
13.979989
 20
3.056942
 30
0.0
 10
14.246036
 20
2.952113
 30
0.0
 10
14.481834
 20
2.759213
 30
0.0
 10
14.638622
 20
2.613199
 30
0.0
 10
14.810781
 20
2.590823
 30
0.0
 10
14.985045
 20
2.605498
 30
0.0
 10
14.891669
 20
2.788216
 30
0.0
 10
14.704067
 20
3.022558
 30
0.0
 10
14.509374
 20
3.178336
 30
0.0
 10
14.274386
 20
3.299290
 30
0.0
 10
14.019277
 20
3.377333
 30
0.0
 10
13.764219
 20
3.404376
 30
0.0
 10
13.764230
 20
3.404382
 30
0.0
  0
LWPOLYLINE
  5
106
100
AcDbEntity
  8
1._réteg
 62
7
100
AcDbPolyline
 90
45
 70
0
 10
11.201170
 20
3.401447
 30
0.0
 10
11.121874
 20
3.396564
 30
0.0
 10
10.838941
 20
3.334288
 30
0.0
 10
10.583834
 20
3.215214
 30
0.0
 10
10.362865
 20
3.048228
 30
0.0
 10
10.182351
 20
2.842218
 30
0.0
 10
10.048604
 20
2.606071
 30
0.0
 10
9.967939
 20
2.348673
 30
0.0
 10
9.946670
 20
2.078911
 30
0.0
 10
9.991111
 20
1.805672
 30
0.0
 10
10.135864
 20
1.478481
 30
0.0
 10
10.354429
 20
1.206577
 30
0.0
 10
10.628990
 20
1.007088
 30
0.0
 10
10.941734
 20
0.897145
 30
0.0
 10
11.234663
 20
0.879420
 30
0.0
 10
11.528012
 20
0.926846
 30
0.0
 10
11.801366
 20
1.033826
 30
0.0
 10
12.034313
 20
1.194765
 30
0.0
 10
12.236705
 20
1.433011
 30
0.0
 10
12.368153
 20
1.674481
 30
0.0
 10
12.360376
 20
1.735018
 30
0.0
 10
12.206618
 20
1.744972
 30
0.0
 10
12.024522
 20
1.744972
 30
0.0
 10
11.947179
 20
1.600076
 30
0.0
 10
11.790581
 20
1.408584
 30
0.0
 10
11.567144
 20
1.273501
 30
0.0
 10
11.302433
 20
1.205517
 30
0.0
 10
11.022010
 20
1.215322
 30
0.0
 10
10.813158
 20
1.287529
 30
0.0
 10
10.620996
 20
1.414940
 30
0.0
 10
10.463888
 20
1.582053
 30
0.0
 10
10.360199
 20
1.773363
 30
0.0
 10
10.316335
 20
1.909333
 30
0.0
 10
10.332068
 20
1.949144
 30
0.0
 10
10.392742
 20
1.974476
 30
0.0
 10
11.382289
 20
1.995596
 30
0.0
 10
12.447455
 20
1.995596
 30
0.0
 10
12.447455
 20
2.144406
 30
0.0
 10
12.401270
 20
2.457110
 30
0.0
 10
12.280043
 20
2.751396
 30
0.0
 10
12.072637
 20
3.015742
 30
0.0
 10
11.806056
 20
3.222108
 30
0.0
 10
11.506751
 20
3.355634
 30
0.0
 10
11.201170
 20
3.401461
 30
0.0
 10
11.201170
 20
3.401447
 30
0.0
  0
LWPOLYLINE
  5
107
100
AcDbEntity
  8
1._réteg
 62
7
100
AcDbPolyline
 90
53
 70
0
 10
16.225468
 20
3.397524
 30
0.0
 10
16.026727
 20
3.378925
 30
0.0
 10
15.598471
 20
3.210570
 30
0.0
 10
15.269017
 20
2.923956
 30
0.0
 10
15.058246
 20
2.543710
 30
0.0
 10
14.986038
 20
2.094459
 30
0.0
 10
15.018793
 20
1.820276
 30
0.0
 10
15.108045
 20
1.570202
 30
0.0
 10
15.246880
 20
1.349919
 30
0.0
 10
15.428384
 20
1.165106
 30
0.0
 10
15.645643
 20
1.021446
 30
0.0
 10
15.891742
 20
0.924618
 30
0.0
 10
16.159768
 20
0.880305
 30
0.0
 10
16.442807
 20
0.894187
 30
0.0
 10
16.798586
 20
1.015561
 30
0.0
 10
17.070354
 20
1.222158
 30
0.0
 10
17.152593
 20
1.322016
 30
0.0
 10
17.133007
 20
1.134045
 30
0.0
 10
17.072388
 20
0.809984
 30
0.0
 10
16.945036
 20
0.596567
 30
0.0
 10
16.729590
 20
0.426143
 30
0.0
 10
16.460309
 20
0.334811
 30
0.0
 10
16.168324
 20
0.328099
 30
0.0
 10
15.884763
 20
0.411534
 30
0.0
 10
15.648993
 20
0.572814
 30
0.0
 10
15.492181
 20
0.796284
 30
0.0
 10
15.424638
 20
0.884687
 30
0.0
 10
15.261131
 20
0.899084
 30
0.0
 10
15.079039
 20
0.866775
 30
0.0
 10
15.171063
 20
0.651391
 30
0.0
 10
15.318505
 20
0.436477
 30
0.0
 10
15.521916
 20
0.252054
 30
0.0
 10
15.765773
 20
0.109434
 30
0.0
 10
16.034553
 20
0.019928
 30
0.0
 10
16.331537
 20
0.003309
 30
0.0
 10
16.650763
 20
0.059630
 30
0.0
 10
16.942861
 20
0.174911
 30
0.0
 10
17.158461
 20
0.335173
 30
0.0
 10
17.336944
 20
0.557096
 30
0.0
 10
17.430927
 20
0.821214
 30
0.0
 10
17.469935
 20
1.290699
 30
0.0
 10
17.483493
 20
2.128723
 30
0.0
 10
17.495234
 20
3.342702
 30
0.0
 10
17.320970
 20
3.342702
 30
0.0
 10
17.146706
 20
3.342702
 30
0.0
 10
17.146706
 20
3.139065
 30
0.0
 10
17.146706
 20
2.935430
 30
0.0
 10
17.029223
 20
3.065639
 30
0.0
 10
16.869607
 20
3.201307
 30
0.0
 10
16.671260
 20
3.305367
 30
0.0
 10
16.450953
 20
3.372535
 30
0.0
 10
16.225456
 20
3.397524
 30
0.0
 10
16.225468
 20
3.397524
 30
0.0
  0
LWPOLYLINE
  5
108
100
AcDbEntity
  8
1._réteg
 62
7
100
AcDbPolyline
 90
60
 70
0
 10
1.068384
 20
3.388718
 30
0.0
 10
0.893429
 20
3.367923
 30
0.0
 10
0.734540
 20
3.296689
 30
0.0
 10
0.547549
 20
3.155710
 30
0.0
 10
0.528653
 20
3.149219
 30
0.0
 10
0.511325
 20
3.217390
 30
0.0
 10
0.475968
 20
3.314051
 30
0.0
 10
0.331187
 20
3.336829
 30
0.0
 10
0.166712
 20
3.345634
 30
0.0
 10
0.166712
 20
2.138513
 30
0.0
 10
0.166712
 20
0.930410
 30
0.0
 10
0.339019
 20
0.930410
 30
0.0
 10
0.511325
 20
0.930410
 30
0.0
 10
0.511325
 20
1.754742
 30
0.0
 10
0.511325
 20
2.579068
 30
0.0
 10
0.597478
 20
2.749417
 30
0.0
 10
0.693542
 20
2.893620
 30
0.0
 10
0.815141
 20
2.995222
 30
0.0
 10
0.964481
 20
3.055425
 30
0.0
 10
1.143767
 20
3.075429
 30
0.0
 10
1.313549
 20
3.057536
 30
0.0
 10
1.455093
 20
2.981444
 30
0.0
 10
1.660687
 20
2.750397
 30
0.0
 10
1.723560
 20
2.517857
 30
0.0
 10
1.733133
 20
1.771385
 30
0.0
 10
1.733133
 20
0.930410
 30
0.0
 10
1.902503
 20
0.930410
 30
0.0
 10
2.072850
 20
0.930410
 30
0.0
 10
2.084605
 20
1.752781
 30
0.0
 10
2.104977
 20
2.468501
 30
0.0
 10
2.161947
 20
2.718088
 30
0.0
 10
2.256979
 20
2.868400
 30
0.0
 10
2.380854
 20
2.979364
 30
0.0
 10
2.524613
 20
3.050406
 30
0.0
 10
2.679297
 20
3.080949
 30
0.0
 10
2.835946
 20
3.070418
 30
0.0
 10
2.985601
 20
3.018236
 30
0.0
 10
3.119303
 20
2.923830
 30
0.0
 10
3.228092
 20
2.786623
 30
0.0
 10
3.315224
 20
2.637810
 30
0.0
 10
3.325980
 20
1.784110
 30
0.0
 10
3.335767
 20
0.930410
 30
0.0
 10
3.506115
 20
0.930410
 30
0.0
 10
3.675485
 20
0.930410
 30
0.0
 10
3.675485
 20
1.714602
 30
0.0
 10
3.639433
 20
2.619135
 30
0.0
 10
3.577655
 20
2.851938
 30
0.0
 10
3.471851
 20
3.034309
 30
0.0
 10
3.341716
 20
3.171052
 30
0.0
 10
3.152692
 20
3.284940
 30
0.0
 10
2.936504
 20
3.371177
 30
0.0
 10
2.705283
 20
3.388710
 30
0.0
 10
2.341278
 20
3.320106
 30
0.0
 10
2.035637
 20
3.097948
 30
0.0
 10
1.915220
 20
2.973609
 30
0.0
 10
1.802633
 20
3.097948
 30
0.0
 10
1.506919
 20
3.318227
 30
0.0
 10
1.137883
 20
3.388710
 30
0.0
 10
1.068373
 20
3.388710
 30
0.0
 10
1.068384
 20
3.388718
 30
0.0
  0
LWPOLYLINE
  5
109
100
AcDbEntity
  8
1._réteg
 62
7
100
AcDbPolyline
 90
28
 70
0
 10
5.042198
 20
3.388718
 30
0.0
 10
4.686453
 20
3.341780
 30
0.0
 10
4.367774
 20
3.202673
 30
0.0
 10
4.097498
 20
2.978409
 30
0.0
 10
3.886963
 20
2.675997
 30
0.0
 10
3.799768
 20
2.459508
 30
0.0
 10
3.785145
 20
2.136558
 30
0.0
 10
3.798676
 20
1.818836
 30
0.0
 10
3.870321
 20
1.614746
 30
0.0
 10
4.029906
 20
1.363605
 30
0.0
 10
4.240150
 20
1.151664
 30
0.0
 10
4.484534
 20
0.992349
 30
0.0
 10
4.746536
 20
0.899087
 30
0.0
 10
5.143536
 20
0.888702
 30
0.0
 10
5.512126
 20
0.979365
 30
0.0
 10
5.743013
 20
1.114240
 30
0.0
 10
5.927955
 20
1.277397
 30
0.0
 10
6.076065
 20
1.478775
 30
0.0
 10
6.196456
 20
1.728312
 30
0.0
 10
6.265150
 20
1.949773
 30
0.0
 10
6.268905
 20
2.184533
 30
0.0
 10
6.203520
 20
2.520760
 30
0.0
 10
6.053265
 20
2.822283
 30
0.0
 10
5.826286
 20
3.076851
 30
0.0
 10
5.530727
 20
3.272214
 30
0.0
 10
5.293366
 20
3.369180
 30
0.0
 10
5.042198
 20
3.388718
 30
0.0
 10
5.042198
 20
3.388718
 30
0.0
  0
LWPOLYLINE
  5
10a
100
AcDbEntity
  8
1._réteg
 62
7
100
AcDbPolyline
 90
10
 70
0
 10
9.001327
 20
3.342702
 30
0.0
 10
9.001327
 20
2.136558
 30
0.0
 10
9.001327
 20
0.930416
 30
0.0
 10
9.173635
 20
0.930416
 30
0.0
 10
9.345943
 20
0.930416
 30
0.0
 10
9.345943
 20
2.136558
 30
0.0
 10
9.345943
 20
3.342702
 30
0.0
 10
9.173635
 20
3.342702
 30
0.0
 10
9.001327
 20
3.342702
 30
0.0
 10
9.001327
 20
3.342702
 30
0.0
  0
LWPOLYLINE
  5
10b
100
AcDbEntity
  8
1._réteg
 62
7
100
AcDbPolyline
 90
25
 70
0
 10
5.025558
 20
3.082284
 30
0.0
 10
5.092128
 20
3.078390
 30
0.0
 10
5.324849
 20
3.009927
 30
0.0
 10
5.537905
 20
2.887575
 30
0.0
 10
5.716778
 20
2.721855
 30
0.0
 10
5.846949
 20
2.523287
 30
0.0
 10
5.903020
 20
2.337596
 30
0.0
 10
5.917456
 20
2.121542
 30
0.0
 10
5.891015
 20
1.901992
 30
0.0
 10
5.824456
 20
1.705810
 30
0.0
 10
5.649457
 20
1.455673
 30
0.0
 10
5.405437
 20
1.279943
 30
0.0
 10
5.199624
 20
1.213573
 30
0.0
 10
4.971223
 20
1.200214
 30
0.0
 10
4.746015
 20
1.238467
 30
0.0
 10
4.549779
 20
1.326936
 30
0.0
 10
4.336692
 20
1.504007
 30
0.0
 10
4.189506
 20
1.743995
 30
0.0
 10
4.112270
 20
2.035661
 30
0.0
 10
4.132902
 20
2.340504
 30
0.0
 10
4.243758
 20
2.624399
 30
0.0
 10
4.437192
 20
2.853219
 30
0.0
 10
4.722591
 20
3.010886
 30
0.0
 10
5.025583
 20
3.082304
 30
0.0
 10
5.025558
 20
3.082284
 30
0.0
  0
LWPOLYLINE
  5
10c
100
AcDbEntity
  8
1._réteg
 62
7
100
AcDbPolyline
 90
23
 70
0
 10
16.264626
 20
3.072491
 30
0.0
 10
16.582803
 20
2.999065
 30
0.0
 10
16.876314
 20
2.792127
 30
0.0
 10
17.064288
 20
2.531373
 30
0.0
 10
17.143441
 20
2.223733
 30
0.0
 10
17.110494
 20
1.876137
 30
0.0
 10
17.031706
 20
1.682917
 30
0.0
 10
16.901972
 20
1.498245
 30
0.0
 10
16.740662
 20
1.344653
 30
0.0
 10
16.567143
 20
1.244673
 30
0.0
 10
16.170794
 20
1.203187
 30
0.0
 10
15.965021
 20
1.231441
 30
0.0
 10
15.814281
 20
1.288728
 30
0.0
 10
15.598518
 20
1.466348
 30
0.0
 10
15.434424
 20
1.675438
 30
0.0
 10
15.360059
 20
1.846902
 30
0.0
 10
15.346312
 20
2.120889
 30
0.0
 10
15.392683
 20
2.496598
 30
0.0
 10
15.578341
 20
2.787599
 30
0.0
 10
15.718104
 20
2.909940
 30
0.0
 10
15.887382
 20
2.999941
 30
0.0
 10
16.264626
 20
3.072491
 30
0.0
 10
16.264626
 20
3.072491
 30
0.0
  0
LWPOLYLINE
  5
10d
100
AcDbEntity
  8
1._réteg
 62
7
100
AcDbPolyline
 90
22
 70
0
 10
7.591548
 20
3.071645
 30
0.0
 10
7.795247
 20
3.054962
 30
0.0
 10
7.998820
 20
2.989408
 30
0.0
 10
8.276755
 20
2.801545
 30
0.0
 10
8.462573
 20
2.543036
 30
0.0
 10
8.546234
 20
2.234812
 30
0.0
 10
8.517694
 20
1.897809
 30
0.0
 10
8.440147
 20
1.680826
 30
0.0
 10
8.328144
 20
1.503804
 30
0.0
 10
8.180708
 20
1.365429
 30
0.0
 10
7.996864
 20
1.264389
 30
0.0
 10
7.716948
 20
1.205476
 30
0.0
 10
7.417284
 20
1.209562
 30
0.0
 10
7.132432
 20
1.320459
 30
0.0
 10
6.899274
 20
1.530953
 30
0.0
 10
6.741556
 20
1.811310
 30
0.0
 10
6.683026
 20
2.131791
 30
0.0
 10
6.756676
 20
2.500070
 30
0.0
 10
6.956406
 20
2.794868
 30
0.0
 10
7.246577
 20
2.993091
 30
0.0
 10
7.591548
 20
3.071645
 30
0.0
 10
7.591548
 20
3.071645
 30
0.0
  0
LWPOLYLINE
  5
10e
100
AcDbEntity
  8
1._réteg
 62
7
100
AcDbPolyline
 90
14
 70
0
 10
11.209981
 20
3.071645
 30
0.0
 10
11.526330
 20
3.010510
 30
0.0
 10
11.784662
 20
2.863113
 30
0.0
 10
11.962962
 20
2.641171
 30
0.0
 10
12.072492
 20
2.414727
 30
0.0
 10
12.096001
 20
2.308995
 30
0.0
 10
11.204122
 20
2.308995
 30
0.0
 10
10.312241
 20
2.308995
 30
0.0
 10
10.333774
 20
2.410813
 30
0.0
 10
10.447608
 20
2.669310
 30
0.0
 10
10.651168
 20
2.880397
 30
0.0
 10
10.915086
 20
3.021900
 30
0.0
 10
11.209989
 20
3.071645
 30
0.0
 10
11.209981
 20
3.071645
 30
0.0
  0
ENDSEC
  0
SECTION
  2
OBJECTS
  0
DICTIONARY
  5
C
330
0
100
AcDbDictionary
  3
ACAD_GROUP
350
D
  3
ACAD_MLINESTYLE
350
17
  0
DICTIONARY
  5
D
330
C
100
AcDbDictionary
  0
DICTIONARY
  5
1A
330
C
100
AcDbDictionary
  0
DICTIONARY
  5
17
330
C
100
AcDbDictionary
  3
STANDARD
350
18
  0
DICTIONARY
  5
19
330
C
100
AcDbDictionary
  0
ENDSEC
  0
EOF
