  0
SECTION
  2
HEADER
  9
$ACADVER
  1
AC1014
  9
$HANDSEED
  5
FFFF
  9
$MEASUREMENT
 70
     1
  0
ENDSEC
  0
SECTION
  2
TABLES
  0
TABLE
  2
VPORT
  5
8
330
0
100
AcDbSymbolTable
 70
     4
  0
VPORT
  5
2E
330
8
100
AcDbSymbolTableRecord
100
AcDbViewportTableRecord
  2
*ACTIVE
 70
     0
 10
0.0
 20
0.0
 11
1.0
 21
1.0
 12
210.0
 22
148.5
 13
0.0
 23
0.0
 14
10.0
 24
10.0
 15
10.0
 25
10.0
 16
0.0
 26
0.0
 36
1.0
 17
0.0
 27
0.0
 37
0.0
 40
341.0
 41
1.24
 42
50.0
 43
0.0
 44
0.0
 50
0.0
 51
0.0
 71
     0
 72
   100
 73
     1
 74
     3
 75
     0
 76
     0
 77
     0
 78
     0
  0
ENDTAB
  0
TABLE
  2
LTYPE
  5
5
330
0
100
AcDbSymbolTable
 70
     1
  0
LTYPE
  5
14
330
5
100
AcDbSymbolTableRecord
100
AcDbLinetypeTableRecord
  2
BYBLOCK
 70
     0
  3

 72
    65
 73
     0
 40
0.0
  0
LTYPE
  5
15
330
5
100
AcDbSymbolTableRecord
100
AcDbLinetypeTableRecord
  2
BYLAYER
 70
     0
  3

 72
    65
 73
     0
 40
0.0
  0
LTYPE
  5
16
330
5
100
AcDbSymbolTableRecord
100
AcDbLinetypeTableRecord
  2
CONTINUOUS
 70
     0
  3
Solid line
 72
    65
 73
     0
 40
0.0
  0
ENDTAB
  0
TABLE
  2
LAYER
  5
2
100
AcDbSymbolTable
 70
2
  0
LAYER
  5
50
100
AcDbSymbolTableRecord
100
AcDbLayerTableRecord
  2
0
 70
0
  6
CONTINUOUS
  0
LAYER
  5
51
100
AcDbSymbolTableRecord
100
AcDbLayerTableRecord
  2
1._réteg
 70
0
  6
CONTINUOUS
  0
ENDTAB
  0
TABLE
  2
STYLE
  5
3
330
0
100
AcDbSymbolTable
 70
     1
  0
STYLE
  5
11
330
3
100
AcDbSymbolTableRecord
100
AcDbTextStyleTableRecord
  2
STANDARD
 70
     0
 40
0.0
 41
1.0
 50
0.0
 71
     0
 42
2.5
  3
txt
  4

  0
ENDTAB
  0
TABLE
  2
VIEW
  5
6
330
0
100
AcDbSymbolTable
 70
     0
  0
ENDTAB
  0
TABLE
  2
UCS
  5
7
330
0
100
AcDbSymbolTable
 70
     0
  0
ENDTAB
  0
TABLE
  2
APPID
  5
9
330
0
100
AcDbSymbolTable
 70
     2
  0
APPID
  5
12
330
9
100
AcDbSymbolTableRecord
100
AcDbRegAppTableRecord
  2
ACAD
 70
     0
  0
ENDTAB
  0
TABLE
  2
DIMSTYLE
  5
A
330
0
100
AcDbSymbolTable
 70
     1
  0
DIMSTYLE
105
27
330
A
100
AcDbSymbolTableRecord
100
AcDbDimStyleTableRecord
  2
ISO-25
 70
     0
  3

  4

  5

  6

  7

 40
1.0
 41
2.5
 42
0.625
 43
3.75
 44
1.25
 45
0.0
 46
0.0
 47
0.0
 48
0.0
140
2.5
141
2.5
142
0.0
143
0.03937007874016
144
1.0
145
0.0
146
1.0
147
0.625
 71
     0
 72
     0
 73
     0
 74
     0
 75
     0
 76
     0
 77
     1
 78
     8
170
     0
171
     3
172
     1
173
     0
174
     0
175
     0
176
     0
177
     0
178
     0
270
     2
271
     2
272
     2
273
     2
274
     3
340
11
275
     0
280
     0
281
     0
282
     0
283
     0
284
     8
285
     0
286
     0
287
     3
288
     0
  0
ENDTAB
  0
TABLE
  2
BLOCK_RECORD
  5
1
330
0
100
AcDbSymbolTable
 70
     1
  0
BLOCK_RECORD
  5
1F
330
1
100
AcDbSymbolTableRecord
100
AcDbBlockTableRecord
  2
*MODEL_SPACE
  0
BLOCK_RECORD
  5
1B
330
1
100
AcDbSymbolTableRecord
100
AcDbBlockTableRecord
  2
*PAPER_SPACE
  0
ENDTAB
  0
ENDSEC
  0
SECTION
  2
BLOCKS
  0
BLOCK
  5
20
330
1F
100
AcDbEntity
  8
0
100
AcDbBlockBegin
  2
*MODEL_SPACE
 70
     0
 10
0.0
 20
0.0
 30
0.0
  3
*MODEL_SPACE
  1

  0
ENDBLK
  5
21
330
1F
100
AcDbEntity
  8
0
100
AcDbBlockEnd
  0
BLOCK
  5
1C
330
1B
100
AcDbEntity
 67
     1
  8
0
100
AcDbBlockBegin
  2
*PAPER_SPACE
  1

  0
ENDBLK
  5
1D
330
1B
100
AcDbEntity
 67
     1
  8
0
100
AcDbBlockEnd
  0
ENDSEC
  0
SECTION
  2
ENTITIES
  0
LWPOLYLINE
  5
100
100
AcDbEntity
  8
1._réteg
 62
7
100
AcDbPolyline
 90
44
 70
0
 10
13.005324
 20
15.059641
 30
0.0
 10
11.917151
 20
14.934529
 30
0.0
 10
10.876338
 20
14.601425
 30
0.0
 10
9.919678
 20
14.074016
 30
0.0
 10
9.083976
 20
13.365997
 30
0.0
 10
8.802978
 20
13.159706
 30
0.0
 10
8.534644
 20
13.379552
 30
0.0
 10
7.489434
 20
14.251034
 30
0.0
 10
6.249079
 20
14.803597
 30
0.0
 10
4.905232
 20
15.036208
 30
0.0
 10
3.549550
 20
14.947844
 30
0.0
 10
2.499193
 20
14.462455
 30
0.0
 10
1.605573
 20
13.740257
 30
0.0
 10
0.879957
 20
12.840172
 30
0.0
 10
0.333612
 20
11.821129
 30
0.0
 10
0.084488
 20
11.153420
 30
0.0
 10
-0.000000
 20
10.448028
 30
0.0
 10
0.079976
 20
9.017943
 30
0.0
 10
0.567836
 20
7.526621
 30
0.0
 10
1.339749
 20
6.156435
 30
0.0
 10
1.744727
 20
5.936850
 30
0.0
 10
2.202575
 20
5.864705
 30
0.0
 10
3.146017
 20
5.835117
 30
0.0
 10
4.347062
 20
5.787670
 30
0.0
 10
5.145590
 20
4.528857
 30
0.0
 10
7.006775
 20
13.194900
 30
0.0
 10
7.304040
 20
12.268099
 30
0.0
 10
7.498914
 20
11.233085
 30
0.0
 10
8.991768
 20
3.392088
 30
0.0
 10
9.444616
 20
4.578288
 30
0.0
 10
9.839112
 20
5.787670
 30
0.0
 10
13.322330
 20
5.928137
 30
0.0
 10
15.188019
 20
6.825691
 30
0.0
 10
17.119999
 20
7.559074
 30
0.0
 10
17.519973
 20
8.906265
 30
0.0
 10
17.632320
 20
10.303431
 30
0.0
 10
17.594164
 20
11.083344
 30
0.0
 10
17.365411
 20
11.822701
 30
0.0
 10
16.589605
 20
13.177932
 30
0.0
 10
15.885833
 20
13.961172
 30
0.0
 10
15.026712
 20
14.562534
 30
0.0
 10
14.052969
 20
14.942019
 30
0.0
 10
13.005324
 20
15.059641
 30
0.0
 10
13.005324
 20
15.059641
 30
0.0
  0
LWPOLYLINE
  5
101
100
AcDbEntity
  8
1._réteg
 62
7
100
AcDbPolyline
 90
35
 70
1
 10
6.385940
 20
7.353230
 30
0.0
 10
5.478807
 20
3.323994
 30
0.0
 10
4.961172
 20
3.824986
 30
0.0
 10
4.515839
 20
4.457449
 30
0.0
 10
3.953365
 20
5.185763
 30
0.0
 10
2.226467
 20
5.276529
 30
0.0
 10
2.206610
 20
4.927775
 30
0.0
 10
2.477069
 20
4.601052
 30
0.0
 10
3.127214
 20
3.987301
 30
0.0
 10
5.346992
 20
1.997377
 30
0.0
 10
6.540857
 20
1.106752
 30
0.0
 10
7.813157
 20
0.332845
 30
0.0
 10
8.643650
 20
0.010076
 30
0.0
 10
9.071772
 20
0.000000
 30
0.0
 10
9.488341
 20
0.177834
 30
0.0
 10
10.844879
 20
0.917115
 30
0.0
 10
12.100234
 20
1.811300
 30
0.0
 10
14.377666
 20
3.896081
 30
0.0
 10
15.679153
 20
5.288289
 30
0.0
 10
16.262478
 20
6.038929
 30
0.0
 10
16.746885
 20
6.793812
 30
0.0
 10
15.137137
 20
6.229898
 30
0.0
 10
13.570188
 20
5.494858
 30
0.0
 10
12.154802
 20
5.324873
 30
0.0
 10
10.723630
 20
5.279698
 30
0.0
 10
10.379268
 20
5.276876
 30
0.0
 10
10.225085
 20
5.249500
 30
0.0
 10
10.135886
 20
5.128114
 30
0.0
 10
8.737212
 20
1.905424
 30
0.0
 10
8.486889
 20
2.660831
 30
0.0
 10
8.337509
 20
3.525684
 30
0.0
 10
7.735453
 20
6.851207
 30
0.0
 10
7.456829
 20
8.581004
 30
0.0
 10
7.034119
 20
10.905787
 30
0.0
 10
6.385940
 20
7.353230
 30
0.0
  0
ENDSEC
  0
SECTION
  2
OBJECTS
  0
DICTIONARY
  5
C
330
0
100
AcDbDictionary
  3
ACAD_GROUP
350
D
  3
ACAD_MLINESTYLE
350
17
  0
DICTIONARY
  5
D
330
C
100
AcDbDictionary
  0
DICTIONARY
  5
1A
330
C
100
AcDbDictionary
  0
DICTIONARY
  5
17
330
C
100
AcDbDictionary
  3
STANDARD
350
18
  0
DICTIONARY
  5
19
330
C
100
AcDbDictionary
  0
ENDSEC
  0
EOF
