  0
SECTION
  2
HEADER
  9
$ACADVER
  1
AC1014
  9
$HANDSEED
  5
FFFF
  9
$MEASUREMENT
 70
     1
  0
ENDSEC
  0
SECTION
  2
TABLES
  0
TABLE
  2
VPORT
  5
8
330
0
100
AcDbSymbolTable
 70
     4
  0
VPORT
  5
2E
330
8
100
AcDbSymbolTableRecord
100
AcDbViewportTableRecord
  2
*ACTIVE
 70
     0
 10
0.0
 20
0.0
 11
1.0
 21
1.0
 12
210.0
 22
148.5
 13
0.0
 23
0.0
 14
10.0
 24
10.0
 15
10.0
 25
10.0
 16
0.0
 26
0.0
 36
1.0
 17
0.0
 27
0.0
 37
0.0
 40
341.0
 41
1.24
 42
50.0
 43
0.0
 44
0.0
 50
0.0
 51
0.0
 71
     0
 72
   100
 73
     1
 74
     3
 75
     0
 76
     0
 77
     0
 78
     0
  0
ENDTAB
  0
TABLE
  2
LTYPE
  5
5
330
0
100
AcDbSymbolTable
 70
     1
  0
LTYPE
  5
14
330
5
100
AcDbSymbolTableRecord
100
AcDbLinetypeTableRecord
  2
BYBLOCK
 70
     0
  3

 72
    65
 73
     0
 40
0.0
  0
LTYPE
  5
15
330
5
100
AcDbSymbolTableRecord
100
AcDbLinetypeTableRecord
  2
BYLAYER
 70
     0
  3

 72
    65
 73
     0
 40
0.0
  0
LTYPE
  5
16
330
5
100
AcDbSymbolTableRecord
100
AcDbLinetypeTableRecord
  2
CONTINUOUS
 70
     0
  3
Solid line
 72
    65
 73
     0
 40
0.0
  0
ENDTAB
  0
TABLE
  2
LAYER
  5
2
100
AcDbSymbolTable
 70
2
  0
LAYER
  5
50
100
AcDbSymbolTableRecord
100
AcDbLayerTableRecord
  2
0
 70
0
  6
CONTINUOUS
  0
LAYER
  5
51
100
AcDbSymbolTableRecord
100
AcDbLayerTableRecord
  2
1._réteg
 70
0
  6
CONTINUOUS
  0
ENDTAB
  0
TABLE
  2
STYLE
  5
3
330
0
100
AcDbSymbolTable
 70
     1
  0
STYLE
  5
11
330
3
100
AcDbSymbolTableRecord
100
AcDbTextStyleTableRecord
  2
STANDARD
 70
     0
 40
0.0
 41
1.0
 50
0.0
 71
     0
 42
2.5
  3
txt
  4

  0
ENDTAB
  0
TABLE
  2
VIEW
  5
6
330
0
100
AcDbSymbolTable
 70
     0
  0
ENDTAB
  0
TABLE
  2
UCS
  5
7
330
0
100
AcDbSymbolTable
 70
     0
  0
ENDTAB
  0
TABLE
  2
APPID
  5
9
330
0
100
AcDbSymbolTable
 70
     2
  0
APPID
  5
12
330
9
100
AcDbSymbolTableRecord
100
AcDbRegAppTableRecord
  2
ACAD
 70
     0
  0
ENDTAB
  0
TABLE
  2
DIMSTYLE
  5
A
330
0
100
AcDbSymbolTable
 70
     1
  0
DIMSTYLE
105
27
330
A
100
AcDbSymbolTableRecord
100
AcDbDimStyleTableRecord
  2
ISO-25
 70
     0
  3

  4

  5

  6

  7

 40
1.0
 41
2.5
 42
0.625
 43
3.75
 44
1.25
 45
0.0
 46
0.0
 47
0.0
 48
0.0
140
2.5
141
2.5
142
0.0
143
0.03937007874016
144
1.0
145
0.0
146
1.0
147
0.625
 71
     0
 72
     0
 73
     0
 74
     0
 75
     0
 76
     0
 77
     1
 78
     8
170
     0
171
     3
172
     1
173
     0
174
     0
175
     0
176
     0
177
     0
178
     0
270
     2
271
     2
272
     2
273
     2
274
     3
340
11
275
     0
280
     0
281
     0
282
     0
283
     0
284
     8
285
     0
286
     0
287
     3
288
     0
  0
ENDTAB
  0
TABLE
  2
BLOCK_RECORD
  5
1
330
0
100
AcDbSymbolTable
 70
     1
  0
BLOCK_RECORD
  5
1F
330
1
100
AcDbSymbolTableRecord
100
AcDbBlockTableRecord
  2
*MODEL_SPACE
  0
BLOCK_RECORD
  5
1B
330
1
100
AcDbSymbolTableRecord
100
AcDbBlockTableRecord
  2
*PAPER_SPACE
  0
ENDTAB
  0
ENDSEC
  0
SECTION
  2
BLOCKS
  0
BLOCK
  5
20
330
1F
100
AcDbEntity
  8
0
100
AcDbBlockBegin
  2
*MODEL_SPACE
 70
     0
 10
0.0
 20
0.0
 30
0.0
  3
*MODEL_SPACE
  1

  0
ENDBLK
  5
21
330
1F
100
AcDbEntity
  8
0
100
AcDbBlockEnd
  0
BLOCK
  5
1C
330
1B
100
AcDbEntity
 67
     1
  8
0
100
AcDbBlockBegin
  2
*PAPER_SPACE
  1

  0
ENDBLK
  5
1D
330
1B
100
AcDbEntity
 67
     1
  8
0
100
AcDbBlockEnd
  0
ENDSEC
  0
SECTION
  2
ENTITIES
  0
SPLINE
  5
100
100
AcDbEntity
  8
1._réteg
 62
7
100
AcDbSpline
 70
8
 71
3
 72
8
 73
4
 74
0
 40
0
 40
0
 40
0
 40
0
 40
1
 40
1
 40
1
 40
1
 10
81.460692
 20
163.066040
 30
0.0
 10
77.961780
 20
153.928480
 30
0.0
 10
76.535772
 20
144.061552
 30
0.0
 10
74.229316
 20
134.546664
 30
0.0
  0
SPLINE
  5
101
100
AcDbEntity
  8
1._réteg
 62
7
100
AcDbSpline
 70
8
 71
3
 72
8
 73
4
 74
0
 40
0
 40
0
 40
0
 40
0
 40
1
 40
1
 40
1
 40
1
 10
74.229316
 20
134.546664
 30
0.0
 10
71.103468
 20
120.930448
 30
0.0
 10
68.750972
 20
107.101144
 30
0.0
 10
65.020972
 20
93.645736
 30
0.0
  0
SPLINE
  5
102
100
AcDbEntity
  8
1._réteg
 62
7
100
AcDbSpline
 70
8
 71
3
 72
8
 73
4
 74
0
 40
0
 40
0
 40
0
 40
0
 40
1
 40
1
 40
1
 40
1
 10
65.020972
 20
93.645736
 30
0.0
 10
60.891508
 20
95.601904
 30
0.0
 10
58.396668
 20
101.415920
 30
0.0
 10
55.245828
 20
105.151488
 30
0.0
  0
SPLINE
  5
103
100
AcDbEntity
  8
1._réteg
 62
7
100
AcDbSpline
 70
8
 71
3
 72
8
 73
4
 74
0
 40
0
 40
0
 40
0
 40
0
 40
1
 40
1
 40
1
 40
1
 10
55.245828
 20
105.151488
 30
0.0
 10
53.199884
 20
108.044016
 30
0.0
 10
51.153948
 20
110.936552
 30
0.0
 10
49.108012
 20
113.829080
 30
0.0
  0
SPLINE
  5
104
100
AcDbEntity
  8
1._réteg
 62
7
100
AcDbSpline
 70
8
 71
3
 72
8
 73
4
 74
0
 40
0
 40
0
 40
0
 40
0
 40
1
 40
1
 40
1
 40
1
 10
49.108012
 20
113.829080
 30
0.0
 10
43.197156
 20
113.691352
 30
0.0
 10
37.224740
 20
114.260712
 30
0.0
 10
31.364132
 20
113.465984
 30
0.0
  0
SPLINE
  5
105
100
AcDbEntity
  8
1._réteg
 62
7
100
AcDbSpline
 70
8
 71
3
 72
8
 73
4
 74
0
 40
0
 40
0
 40
0
 40
0
 40
1
 40
1
 40
1
 40
1
 10
31.364132
 20
113.465984
 30
0.0
 10
29.770044
 20
108.566896
 30
0.0
 10
38.192564
 20
104.442704
 30
0.0
 10
41.149868
 20
100.379008
 30
0.0
  0
SPLINE
  5
106
100
AcDbEntity
  8
1._réteg
 62
7
100
AcDbSpline
 70
8
 71
3
 72
8
 73
4
 74
0
 40
0
 40
0
 40
0
 40
0
 40
1
 40
1
 40
1
 40
1
 10
41.149868
 20
100.379008
 30
0.0
 10
55.642148
 20
86.449680
 30
0.0
 10
70.890020
 20
72.807688
 30
0.0
 10
88.717044
 20
63.282480
 30
0.0
  0
SPLINE
  5
107
100
AcDbEntity
  8
1._réteg
 62
7
100
AcDbSpline
 70
8
 71
3
 72
8
 73
4
 74
0
 40
0
 40
0
 40
0
 40
0
 40
1
 40
1
 40
1
 40
1
 10
88.717044
 20
63.282480
 30
0.0
 10
94.016732
 20
60.617120
 30
0.0
 10
100.230084
 20
57.735296
 30
0.0
 10
105.721884
 20
61.708680
 30
0.0
  0
SPLINE
  5
108
100
AcDbEntity
  8
1._réteg
 62
7
100
AcDbSpline
 70
8
 71
3
 72
8
 73
4
 74
0
 40
0
 40
0
 40
0
 40
0
 40
1
 40
1
 40
1
 40
1
 10
105.721884
 20
61.708680
 30
0.0
 10
124.846348
 20
70.476552
 30
0.0
 10
140.756068
 20
84.576488
 30
0.0
 10
155.353604
 20
99.452760
 30
0.0
  0
SPLINE
  5
109
100
AcDbEntity
  8
1._réteg
 62
7
100
AcDbSpline
 70
8
 71
3
 72
8
 73
4
 74
0
 40
0
 40
0
 40
0
 40
0
 40
1
 40
1
 40
1
 40
1
 10
155.353604
 20
99.452760
 30
0.0
 10
164.221604
 20
108.698432
 30
0.0
 10
173.699428
 20
117.874304
 30
0.0
 10
179.403668
 20
129.509912
 30
0.0
  0
SPLINE
  5
10a
100
AcDbEntity
  8
1._réteg
 62
7
100
AcDbSpline
 70
8
 71
3
 72
8
 73
4
 74
0
 40
0
 40
0
 40
0
 40
0
 40
1
 40
1
 40
1
 40
1
 10
179.403668
 20
129.509912
 30
0.0
 10
168.187524
 20
126.167744
 30
0.0
 10
157.793804
 20
120.483976
 30
0.0
 10
147.156900
 20
115.682000
 30
0.0
  0
SPLINE
  5
10b
100
AcDbEntity
  8
1._réteg
 62
7
100
AcDbSpline
 70
8
 71
3
 72
8
 73
4
 74
0
 40
0
 40
0
 40
0
 40
0
 40
1
 40
1
 40
1
 40
1
 10
147.156900
 20
115.682000
 30
0.0
 10
137.738268
 20
113.355008
 30
0.0
 10
127.893676
 20
114.135584
 30
0.0
 10
118.261364
 20
113.497872
 30
0.0
  0
SPLINE
  5
10c
100
AcDbEntity
  8
1._réteg
 62
7
100
AcDbSpline
 70
8
 71
3
 72
8
 73
4
 74
0
 40
0
 40
0
 40
0
 40
0
 40
1
 40
1
 40
1
 40
1
 10
118.261364
 20
113.497872
 30
0.0
 10
116.306436
 20
112.936384
 30
0.0
 10
112.883372
 20
114.498496
 30
0.0
 10
112.295164
 20
111.960096
 30
0.0
  0
SPLINE
  5
10d
100
AcDbEntity
  8
1._réteg
 62
7
100
AcDbSpline
 70
8
 71
3
 72
8
 73
4
 74
0
 40
0
 40
0
 40
0
 40
0
 40
1
 40
1
 40
1
 40
1
 10
112.295164
 20
111.960096
 30
0.0
 10
107.612196
 20
101.035360
 30
0.0
 10
103.307572
 20
89.930648
 30
0.0
 10
98.097196
 20
79.246440
 30
0.0
  0
SPLINE
  5
10e
100
AcDbEntity
  8
1._réteg
 62
7
100
AcDbSpline
 70
8
 71
3
 72
8
 73
4
 74
0
 40
0
 40
0
 40
0
 40
0
 40
1
 40
1
 40
1
 40
1
 10
98.097196
 20
79.246440
 30
0.0
 10
95.266484
 20
82.938664
 30
0.0
 10
95.504212
 20
90.520256
 30
0.0
 10
94.039748
 20
95.693760
 30
0.0
  0
SPLINE
  5
10f
100
AcDbEntity
  8
1._réteg
 62
7
100
AcDbSpline
 70
8
 71
3
 72
8
 73
4
 74
0
 40
0
 40
0
 40
0
 40
0
 40
1
 40
1
 40
1
 40
1
 10
94.039748
 20
95.693760
 30
0.0
 10
89.916532
 20
118.118704
 30
0.0
 10
86.316908
 20
140.650552
 30
0.0
 10
81.602284
 20
162.959896
 30
0.0
  0
LWPOLYLINE
  5
110
100
AcDbEntity
  8
1._réteg
 62
7
100
AcDbPolyline
 90
44
 70
0
 10
141.422892
 20
211.949040
 30
0.0
 10
130.376827
 20
210.679031
 30
0.0
 10
119.811488
 20
207.297679
 30
0.0
 10
110.100417
 20
201.943939
 30
0.0
 10
101.617156
 20
194.756768
 30
0.0
 10
98.764754
 20
192.662729
 30
0.0
 10
96.040884
 20
194.894408
 30
0.0
 10
85.430926
 20
203.740865
 30
0.0
 10
72.840028
 20
209.349932
 30
0.0
 10
59.198590
 20
211.711187
 30
0.0
 10
45.437012
 20
210.814208
 30
0.0
 10
34.774805
 20
205.887006
 30
0.0
 10
25.703637
 20
198.555922
 30
0.0
 10
18.337882
 20
189.419129
 30
0.0
 10
12.791917
 20
179.074800
 30
0.0
 10
10.263050
 20
172.296851
 30
0.0
 10
9.405408
 20
165.136393
 30
0.0
 10
10.217250
 20
150.619544
 30
0.0
 10
15.169531
 20
135.481079
 30
0.0
 10
23.005252
 20
121.572296
 30
0.0
 10
27.116199
 20
119.343291
 30
0.0
 10
31.763831
 20
118.610939
 30
0.0
 10
41.340732
 20
118.310576
 30
0.0
 10
53.532612
 20
117.828920
 30
0.0
 10
61.638484
 20
105.050672
 30
0.0
 10
80.531436
 20
193.019968
 30
0.0
 10
83.549005
 20
183.612012
 30
0.0
 10
85.527164
 20
173.105552
 30
0.0
 10
100.681164
 20
93.511312
 30
0.0
 10
105.278063
 20
105.552474
 30
0.0
 10
109.282588
 20
117.828920
 30
0.0
 10
144.640844
 20
119.254816
 30
0.0
 10
163.579525
 20
128.365913
 30
0.0
 10
183.191124
 20
135.810504
 30
0.0
 10
187.251300
 20
149.485902
 30
0.0
 10
188.391732
 20
163.668600
 30
0.0
 10
188.004395
 20
171.585521
 30
0.0
 10
185.682302
 20
179.090748
 30
0.0
 10
177.807076
 20
192.847728
 30
0.0
 10
170.663041
 20
200.798448
 30
0.0
 10
161.942108
 20
206.902881
 30
0.0
 10
152.057613
 20
210.755065
 30
0.0
 10
141.422892
 20
211.949040
 30
0.0
 10
141.422892
 20
211.949040
 30
0.0
  0
LWPOLYLINE
  5
111
100
AcDbEntity
  8
1._réteg
 62
7
100
AcDbPolyline
 90
4
 70
1
 10
81.602284
 20
162.959896
 30
0.0
 10
81.460692
 20
163.066080
 30
0.0
 10
81.460692
 20
163.066040
 30
0.0
 10
81.460692
 20
163.066040
 30
0.0
  0
ENDSEC
  0
SECTION
  2
OBJECTS
  0
DICTIONARY
  5
C
330
0
100
AcDbDictionary
  3
ACAD_GROUP
350
D
  3
ACAD_MLINESTYLE
350
17
  0
DICTIONARY
  5
D
330
C
100
AcDbDictionary
  0
DICTIONARY
  5
1A
330
C
100
AcDbDictionary
  0
DICTIONARY
  5
17
330
C
100
AcDbDictionary
  3
STANDARD
350
18
  0
DICTIONARY
  5
19
330
C
100
AcDbDictionary
  0
ENDSEC
  0
EOF
