<?xml version="1.0" encoding="UTF-8" standalone="no"?>
<!-- Created with Inkscape (http://www.inkscape.org/) -->

<svg
   xmlns:dc="http://purl.org/dc/elements/1.1/"
   xmlns:cc="http://creativecommons.org/ns#"
   xmlns:rdf="http://www.w3.org/1999/02/22-rdf-syntax-ns#"
   xmlns:svg="http://www.w3.org/2000/svg"
   xmlns="http://www.w3.org/2000/svg"
   xmlns:sodipodi="http://sodipodi.sourceforge.net/DTD/sodipodi-0.dtd"
   xmlns:inkscape="http://www.inkscape.org/namespaces/inkscape"
   sodipodi:docname="logo.svg"
   inkscape:version="0.48.5 r10040"
   version="1.1"
   id="svg2"
   height="74.20816"
   width="62.630554">
  <sodipodi:namedview
     id="base"
     pagecolor="#ffffff"
     bordercolor="#666666"
     borderopacity="1.0"
     inkscape:pageopacity="0.0"
     inkscape:pageshadow="2"
     inkscape:zoom="12.508323"
     inkscape:cx="29.114128"
     inkscape:cy="38.783693"
     inkscape:document-units="px"
     inkscape:current-layer="layer1"
     showgrid="false"
     inkscape:window-width="2554"
     inkscape:window-height="1529"
     inkscape:window-x="0"
     inkscape:window-y="0"
     inkscape:window-maximized="0"
     fit-margin-top="0"
     fit-margin-left="0"
     fit-margin-right="0"
     fit-margin-bottom="0"
     units="mm" />
  <defs
     id="defs4" />
  <metadata
     id="metadata7">
    <rdf:RDF>
      <cc:Work
         rdf:about="">
        <dc:format>image/svg+xml</dc:format>
        <dc:type
           rdf:resource="http://purl.org/dc/dcmitype/StillImage" />
        <dc:title />
      </cc:Work>
    </rdf:RDF>
  </metadata>
  <g
     transform="translate(-86.508035,-226.97914)"
     id="layer1"
     inkscape:groupmode="layer"
     inkscape:label="1. réteg">
    <path
       inkscape:connector-curvature="0"
       id="path3077"
       d="m 132.58989,226.97914 -3.85573,0.44331 -3.68792,1.18029 -3.38974,1.86877 -2.96115,2.50873 -0.99566,0.73095 -0.95079,-0.77898 -3.7035,-3.08793 -4.39496,-1.9579 -4.76166,-0.82421 -4.8036,0.3131 -3.721738,1.71988 -3.166369,2.55897 -2.57108,3.18928 -1.935868,3.61078 -0.882723,2.3659 -0.299367,2.49942 0.28338,5.06723 1.728637,5.28421 2.735126,4.85499 1.434961,0.77806 1.622294,0.25563 3.342905,0.10484 4.255672,0.16812 2.82943,4.46036 6.59475,-30.70645 1.0533,3.28394 0.6905,3.66737 5.28964,27.78306 1.60458,-4.20307 1.39782,-4.28521 12.34211,-0.49772 6.61071,-3.18031 6.8456,-2.5986 1.41723,-4.77351 0.39808,-4.95059 -0.1352,-2.76347 -0.81054,-2.61977 -2.74892,-4.802 -2.49368,-2.77526 -3.04413,-2.13081 -3.45027,-1.34463 -3.71213,-0.41677 0,0"
       style="fill:#000000" />
    <path
       sodipodi:nodetypes="cccccccccccccccccccccccccccccccccc"
       inkscape:connector-curvature="0"
       id="path3044"
       d="m 109.13538,254.28532 -3.21425,14.27682 -1.83414,-1.77517 -1.57795,-2.24101 -1.99302,-2.58064 -6.118929,-0.32161 -0.07036,1.23574 0.958321,1.15768 2.303662,2.17471 7.865356,7.05091 4.23023,3.15576 4.50815,2.74219 2.94269,1.14367 1.51697,0.0357 1.47603,-0.63012 4.80663,-2.6195 4.44811,-3.16837 8.06964,-7.38702 4.61157,-4.93302 2.0669,-2.65975 1.7164,-2.67478 -5.70383,1.99812 -5.55218,2.60447 -5.01515,0.60231 -5.07108,0.16007 -1.22018,0.01 -0.54632,0.097 -0.31606,0.43011 -4.95593,11.41898 -0.88697,-2.67664 -0.5293,-3.06444 -2.13327,-11.78335 -0.98725,-6.1292 -1.49779,-8.23742 z"
       style="fill:#000000" />
    <path
       style="fill:#000000"
       d="m 118.4025,286.34592 0,1.03722 c 0,0.56983 0.0363,1.07001 0.0797,1.11352 0.0435,0.0435 0.30578,0.0666 0.58279,0.0486 l 0.50299,-0.0347 0.0312,-1.08231 0.0312,-1.08231 -0.61401,0 -0.614,0 z m 1.77611,0 0,5.77232 0,5.77233 0.61053,0 0.61054,0 0,-5.77233 0,-5.77232 -0.61054,0 -0.61053,0 z m -10.83005,0.0104 c -0.24109,0.004 -0.28384,0.0585 -0.32608,0.23241 -0.0342,0.1405 -0.0481,2.72937 -0.0312,5.75151 l 0.0312,5.49481 0.63828,0.0347 0.6383,0.0312 0.003,-0.64175 0.003,-0.64522 0.2463,0.29486 c 0.37166,0.44307 1.34622,0.98947 1.93914,1.08924 2.89201,0.48667 5.26748,-1.25584 5.54337,-4.06907 0.0535,-0.5455 0.0116,-0.85701 -0.19079,-1.49859 -0.45099,-1.42994 -1.32114,-2.38208 -2.68496,-2.93126 -1.50883,-0.60755 -3.22192,-0.35021 -4.37088,0.65564 l -0.48564,0.42321 -0.0277,-2.0883 -0.0312,-2.08831 -0.5793,-0.0347 c -0.13143,-0.008 -0.23531,-0.0116 -0.31569,-0.0104 z m 25.93037,2.76821 c -0.5532,0.002 -1.84998,0.41953 -2.29992,0.73889 -0.15703,0.11145 -0.37367,0.25521 -0.48219,0.31913 -0.33369,0.1966 -0.96535,1.0203 -1.2939,1.68939 -0.28411,0.57852 -0.31253,0.74128 -0.30875,1.80731 0.004,1.07514 0.0317,1.22913 0.33302,1.82467 0.65462,1.29382 1.90574,2.28612 3.13939,2.49417 1.16889,0.19712 2.22885,0.0758 3.11859,-0.3573 0.54753,-0.26656 1.7865,-1.43374 1.7865,-1.68244 0,-0.0826 0.075,-0.21191 0.16651,-0.28792 0.35711,-0.29638 0.19294,-0.44404 -0.49258,-0.44404 -0.5282,0 -0.67238,0.0385 -0.72502,0.19427 -0.0751,0.22253 -0.5884,0.79403 -0.90192,1.00252 -0.5903,0.39258 -1.01662,0.50172 -1.95649,0.49953 -0.84925,-0.002 -1.03066,-0.0399 -1.49858,-0.30872 -0.79125,-0.45445 -1.13399,-0.81456 -1.48817,-1.5541 -0.4605,-0.96151 -0.45503,-1.99458 0.0173,-2.9035 0.39839,-0.76657 0.82804,-1.16844 1.66163,-1.56102 1.29952,-0.61204 2.74893,-0.29903 3.76727,0.81519 0.53384,0.58412 0.5591,0.59666 1.16556,0.59666 0.34031,0 0.61747,-0.0233 0.61747,-0.052 0,-0.20833 -0.55043,-1.02555 -0.99559,-1.47777 -0.79286,-0.80549 -2.15706,-1.35834 -3.33017,-1.3529 z m -9.08171,0.0104 c -0.0944,8.4e-4 -0.18851,0.008 -0.28097,0.0173 -2.78495,0.29211 -4.75689,3.0668 -4.00664,5.63702 0.48146,1.64941 1.82868,2.93827 3.36835,3.21919 1.35077,0.24645 2.89841,-0.17557 3.87134,-1.05456 0.46591,-0.42093 1.05216,-1.26362 1.1829,-1.69978 0.0716,-0.23898 0.0457,-0.24977 -0.57237,-0.24977 l -0.64522,0 -0.27405,0.51341 c -0.54169,1.0211 -1.95647,1.61021 -3.27816,1.3633 -0.99721,-0.18631 -2.01023,-1.04074 -2.345,-1.97731 -0.30396,-0.85036 -0.59574,-0.78744 3.62158,-0.78744 l 3.77421,0 0,-0.52728 c -0.002,-0.69537 -0.23666,-1.54239 -0.59319,-2.15075 -0.79844,-1.36244 -2.40592,-2.31744 -3.82278,-2.30338 z m 17.80263,0.0139 c -0.24259,-0.002 -0.48124,0.0181 -0.7042,0.0659 -2.22534,0.47725 -3.70496,2.30459 -3.68748,4.55126 0.0208,2.68671 2.43825,4.67693 5.16178,4.25293 0.83366,-0.12979 1.78683,-0.62968 2.22359,-1.1621 l 0.2914,-0.35383 -0.0694,0.66604 c -0.10568,1.01454 -0.24508,1.41264 -0.66604,1.90445 -0.84166,0.98328 -2.48614,1.27146 -3.75687,0.65563 -0.66737,-0.32343 -1.0967,-0.74605 -1.39104,-1.36329 -0.16673,-0.34963 -0.19858,-0.36425 -0.81868,-0.36425 -0.36825,0 -0.64521,0.0494 -0.64521,0.11448 0,0.0628 0.14604,0.40654 0.32607,0.76317 0.53992,1.06956 1.75536,1.95788 3.05961,2.23747 1.27279,0.27283 3.22222,-0.27563 3.98235,-1.11701 1.08933,-1.20575 1.10126,-1.2684 1.15169,-6.3551 l 0.0416,-4.3015 -0.61747,0 -0.61747,0 0,0.72155 0,0.72154 -0.41628,-0.46137 c -0.63619,-0.70729 -1.7968,-1.16587 -2.84799,-1.17597 z m -53.706204,0.0312 c -0.525883,0.0109 -0.732924,0.0769 -1.182911,0.32609 -0.327658,0.18147 -0.624751,0.40626 -0.662567,0.49953 -0.04346,0.10718 -0.0923,0.027 -0.128352,-0.21855 -0.05608,-0.38203 -0.06524,-0.39023 -0.638285,-0.42321 l -0.582783,-0.0312 0,4.2772 0,4.28068 0.610534,0 0.610534,0 0,-2.92086 0,-2.92084 0.305267,-0.6036 c 0.396999,-0.78379 1.01444,-1.15372 1.935671,-1.15516 0.522579,-8.4e-4 0.713948,0.0589 1.103124,0.33302 0.258602,0.18214 0.586421,0.5496 0.72848,0.81867 0.251811,0.47698 0.256698,0.56393 0.256698,3.46894 l 0,2.97983 0.600131,0 0.603593,0 0.04165,-2.91391 c 0.03899,-2.6657 0.06215,-2.95689 0.274048,-3.42038 0.733453,-1.60435 2.895664,-1.74331 3.77768,-0.24284 l 0.308735,0.52729 0.03811,3.02492 0.03468,3.02492 0.603593,0 0.60013,0 0,-2.77863 c 0,-3.16764 -0.10013,-3.82042 -0.721538,-4.67613 -0.276875,-0.38127 -0.575783,-0.61477 -1.130876,-0.88806 -0.654375,-0.32214 -0.859908,-0.37014 -1.58531,-0.36769 -0.980225,0.003 -1.668269,0.30181 -2.372759,1.03026 l -0.426677,0.44057 -0.39893,-0.44057 c -0.642341,-0.71099 -1.366663,-1.02697 -2.355411,-1.03026 -0.08984,-3.4e-4 -0.171171,-8.4e-4 -0.246296,0 z m 14.080444,0 c -1.75039,-0.007 -3.25767,0.92311 -4.09335,2.52539 -0.343414,0.65844 -0.360224,0.74999 -0.360774,1.9114 -4.5e-4,1.10365 0.0277,1.28213 0.301804,1.84894 0.60826,1.25795 1.85129,2.27236 3.1047,2.5358 0.78242,0.16444 2.06452,0.0285 2.71272,-0.28445 1.21369,-0.58605 1.90714,-1.34542 2.42479,-2.65375 0.26447,-0.66843 0.29904,-0.88527 0.25671,-1.61653 -0.0956,-1.65116 -1.07008,-3.09016 -2.61559,-3.85399 -0.74681,-0.3691 -0.91897,-0.40951 -1.73101,-0.41281 z m 14.02841,0.16305 0,4.27374 0,4.27373 0.61054,0 0.61054,0 0,-4.27373 0,-4.27374 -0.61054,0 -0.61054,0 z m -14.08737,0.92274 c 0.0869,-0.003 0.1652,0.002 0.23588,0.0138 1.12305,0.17958 2.19749,0.96776 2.67456,1.9669 0.36445,0.76325 0.32833,2.06724 -0.0797,2.89657 -0.33674,0.68428 -0.82189,1.17623 -1.48471,1.50898 -0.87839,0.44098 -2.2138,0.36787 -3.03186,-0.16651 -0.65114,-0.42535 -0.93676,-0.75518 -1.27656,-1.47777 -0.60812,-1.29308 -0.21926,-3.03312 0.87763,-3.93032 0.5255,-0.4298 1.47623,-0.7894 2.08485,-0.81172 z m 39.82347,0.0347 c 0.40598,0.005 0.79569,0.0894 1.1274,0.26017 1.6308,0.83963 2.2954,2.25322 1.86977,3.97888 -0.22138,0.89756 -1.10715,1.92725 -1.92526,2.23747 -0.69937,0.26519 -2.15645,0.17884 -2.66762,-0.1561 -0.54713,-0.3585 -1.04293,-0.86305 -1.34595,-1.37023 -0.28439,-0.47599 -0.3142,-0.61802 -0.31221,-1.57837 0.002,-1.15195 0.1621,-1.61061 0.82215,-2.36236 0.57095,-0.65028 1.53855,-1.01961 2.43172,-1.00946 z m -30.73138,0.003 c 0.47688,-0.0146 0.96681,0.0751 1.44309,0.29139 1.51486,0.68769 2.25422,2.24071 1.83853,3.86787 -0.28651,1.12158 -0.88936,1.85317 -1.84546,2.2444 -0.48746,0.19946 -1.47287,0.29245 -2.05363,0.19427 -1.43047,-0.24182 -2.59688,-1.7057 -2.6017,-3.26774 -0.006,-1.87711 1.51606,-3.27812 3.21917,-3.33019 z m 12.82122,0 c 0.72376,0.009 1.58661,0.32235 2.03627,0.73889 0.41677,0.38606 0.928,1.18144 1.01987,1.58877 l 0.0833,0.37464 -3.1602,0 -3.16021,0 0.0763,-0.36077 c 0.27959,-1.29832 1.68451,-2.35819 3.1047,-2.34153 z"
       id="path3146"
       inkscape:connector-curvature="0" />
  </g>
</svg>
