<?xml version="1.0" encoding="UTF-8" standalone="no"?>
<!-- Created with Inkscape (http://www.inkscape.org/) -->

<svg
   xmlns:dc="http://purl.org/dc/elements/1.1/"
   xmlns:cc="http://creativecommons.org/ns#"
   xmlns:rdf="http://www.w3.org/1999/02/22-rdf-syntax-ns#"
   xmlns:svg="http://www.w3.org/2000/svg"
   xmlns="http://www.w3.org/2000/svg"
   xmlns:sodipodi="http://sodipodi.sourceforge.net/DTD/sodipodi-0.dtd"
   xmlns:inkscape="http://www.inkscape.org/namespaces/inkscape"
   width="62.630554"
   height="74.20816"
   id="svg2"
   version="1.1"
   inkscape:version="0.48.5 r10040"
   sodipodi:docname="logo2.dxf">
  <sodipodi:namedview
     id="base"
     pagecolor="#ffffff"
     bordercolor="#666666"
     borderopacity="1.0"
     inkscape:pageopacity="0.0"
     inkscape:pageshadow="2"
     inkscape:zoom="12.508323"
     inkscape:cx="29.114128"
     inkscape:cy="35.585823"
     inkscape:document-units="px"
     inkscape:current-layer="layer1"
     showgrid="false"
     inkscape:window-width="2554"
     inkscape:window-height="1529"
     inkscape:window-x="0"
     inkscape:window-y="0"
     inkscape:window-maximized="0"
     fit-margin-top="0"
     fit-margin-left="0"
     fit-margin-right="0"
     fit-margin-bottom="0"
     units="mm" />
  <defs
     id="defs4" />
  <metadata
     id="metadata7">
    <rdf:RDF>
      <cc:Work
         rdf:about="">
        <dc:format>image/svg+xml</dc:format>
        <dc:type
           rdf:resource="http://purl.org/dc/dcmitype/StillImage" />
        <dc:title></dc:title>
      </cc:Work>
    </rdf:RDF>
  </metadata>
  <g
     inkscape:label="1. réteg"
     inkscape:groupmode="layer"
     id="layer1"
     transform="translate(-86.508035,-226.97914)">
    <path
       style="fill:#000000"
       d="m 132.58989,226.97914 -3.85573,0.44331 -3.68792,1.18029 -3.38974,1.86877 -2.96115,2.50873 -0.99566,0.73095 -0.95079,-0.77898 -3.7035,-3.08793 -4.39496,-1.9579 -4.76166,-0.82421 -4.8036,0.3131 -3.721738,1.71988 -3.166369,2.55897 -2.57108,3.18928 -1.935868,3.61078 -0.882723,2.3659 -0.299367,2.49942 0.28338,5.06723 1.728637,5.28421 2.735126,4.85499 1.434961,0.77806 1.622294,0.25563 3.342905,0.10484 4.255672,0.16812 2.82943,4.46036 6.59475,-30.70645 1.0533,3.28394 0.6905,3.66737 5.28964,27.78306 1.60458,-4.20307 1.39782,-4.28521 12.34211,-0.49772 6.61071,-3.18031 6.8456,-2.5986 1.41723,-4.77351 0.39808,-4.95059 -0.1352,-2.76347 -0.81054,-2.61977 -2.74892,-4.802 -2.49368,-2.77526 -3.04413,-2.13081 -3.45027,-1.34463 -3.71213,-0.41677 0,0"
       id="path3077"
       inkscape:connector-curvature="0" />
    <path
       style="fill:#000000"
       d="m 109.13538,254.28532 -3.21425,14.27682 -1.83414,-1.77517 -1.57795,-2.24101 -1.99302,-2.58064 -6.118929,-0.32161 -0.07036,1.23574 0.958321,1.15768 2.303662,2.17471 7.865356,7.05091 4.23023,3.15576 4.50815,2.74219 2.94269,1.14367 1.51697,0.0357 1.47603,-0.63012 4.80663,-2.6195 4.44811,-3.16837 8.06964,-7.38702 4.61157,-4.93302 2.0669,-2.65975 1.7164,-2.67478 -5.70383,1.99812 -5.55218,2.60447 -5.01515,0.60231 -5.07108,0.16007 -1.22018,0.01 -0.54632,0.097 -0.31606,0.43011 -4.95593,11.41898 -0.88697,-2.67664 -0.5293,-3.06444 -2.13327,-11.78335 -0.98725,-6.1292 -1.49779,-8.23742 z"
       id="path3044"
       inkscape:connector-curvature="0"
       sodipodi:nodetypes="cccccccccccccccccccccccccccccccccc" />
    <path
       inkscape:connector-curvature="0"
       id="path3146"
       d="M118.4025 286.34592L118.4025 287.38314L118.4822 288.49666L119.06499 288.54526L119.56798 288.51056L119.59918 287.42825L119.63038 286.34594L119.01637 286.34594L118.40237 286.34594L118.4025 286.34592M120.17861 286.34592L120.17861 292.11824L120.17861 297.89057L120.78914 297.89057L121.39968 297.89057L121.39968 292.11824L121.39968 286.34592L120.78914 286.34592L120.17861 286.34592L120.17861 286.34592M109.34856 286.35632L109.11095125 286.40880875L109.02248 286.58873L108.99128 292.34024L109.02248 297.83505L109.66076 297.86975L110.29906 297.90095L110.30206 297.2592L110.30506 296.61398L110.55136 296.90884L111.4379575 297.5821975L112.4905 297.99808L113.547699063 298.078351055L114.53792125 297.963212188L115.442615313 297.666239102L116.24323 297.2010075L116.921214063 296.581093086L117.45801625 295.820071563L117.835085312 294.931518633L118.03387 293.92901L118.03443375 293.215745L117.84308 292.43042L117.425080781 291.446383125L116.84291125 290.634505L116.089586094 289.987769375L115.15812 289.49916L114.000204844 289.203845937L112.83772875 289.221955L111.742728281 289.542576563L110.78724 290.1548L110.3016 290.57801L110.2739 288.48971L110.2427 286.4014L109.6634 286.3667L109.34771 286.3563L109.34856 286.35632M135.27893 289.12453L134.0902475 289.374965L132.97901 289.86342L132.49682 290.18255L131.8479425 290.85006125L131.20292 291.87194L130.94058625 292.59277875L130.89417 293.67925L130.949185 294.771435L131.22719 295.50392L131.820405469 296.410207344L132.57974875 297.15816875L133.447660156 297.702548281L134.36658 297.99809L136.03055625 298.0557725L137.48517 297.64079L138.58374375 296.7928725L139.27167 295.95835L139.43818 295.67043L139.608271406 295.476013438L139.58287625 295.3372675L138.9456 295.22639L138.404755 295.26511125L138.22058 295.42066L137.31866 296.42318L136.47150375 296.82098375L135.36217 296.92271L134.46988125 296.8684075L133.86359 296.61399L132.95560375 295.94384875L132.37542 295.05989L132.117428281 294.328397969L132.03425875 293.58841875L132.125994844 292.858300156L132.39272 292.15639L133.060335 291.23563375L134.05435 290.59537L135.048016875 290.307851875L136.0434275 290.3556175L136.986116875 290.727056875L137.82162 291.41056L138.3771675 291.927935L138.98718 292.00722L139.60465 291.95522L139.27379 291.30779375L138.60906 290.47745L137.919201719 289.925478281L137.08656875 289.49690125L136.182638906 289.220373594L135.27889 289.12455L135.27893 289.12453M126.19722 289.13493L125.91625 289.15223L124.913732461 289.372894043L124.009807813 289.794811094L123.226849258 290.386492285L122.58723 291.11644875L122.113323242 291.953191621L121.827502188 292.865232031L121.752140039 293.821081113L121.90961 294.78925L122.422514531 295.948588906L123.19695625 296.91202875L124.169812344 297.618876719L125.27796 298.00844L126.315894688 298.071244062L127.35532 297.9032L128.323900313 297.524135938L129.1493 296.95388L129.86643875 296.10970125L130.3322 295.2541L130.30464125 295.0395975L129.75983 295.00433L129.11461 295.00433L128.84056 295.51774L128.285684688 296.196253906L127.49398 296.67489375L126.556025313 296.915781719L125.5624 296.88104L124.822372813 296.625190938L124.141485 296.1737325L123.584804688 295.581600313L123.2174 294.90373L123.061978125 294.421946875L123.117725703 294.280885703L123.33271 294.191125L126.83898 294.11629L130.61319 294.11629L130.61319 293.58901L130.44954375 292.48100625L130.02 291.43826L129.285094688 290.501600313L128.3405175 289.7703825L127.279986562 289.297258438L126.19722 289.13488L126.19722 289.13493M143.99985 289.14883L143.29565 289.21473L141.778207813 289.81126625L140.6108525 290.8268275L139.864025938 292.174155L139.60817 293.76599L139.724229824 294.73750334L140.040476719 295.623591094L140.532411816 296.404123613L141.17553625 297.05897125L141.945351152 297.568004355L142.817357656 297.911093281L143.767056895 298.068108379L144.76995 298.01892L146.0305825 297.58885625L146.99354 296.85682L147.28494 296.50299L147.21554 297.16903L147.00075 298.31727875L146.5495 299.07348L145.786110156 299.677344531L144.83196625 300.00096125L143.797371719 300.024744844L142.79263 299.72911L141.95722375 299.15764375L141.40159 298.36582L141.16226375 298.05258375L140.58291 298.00157L139.9377 298.11605L140.26377 298.87922L140.786202656 299.640727969L141.50695125 300.29419375L142.371011719 300.799540156L143.32338 301.11669L144.375687188 301.175576406L145.5068025 300.97601375L146.541794063 300.567536719L147.30573 299.99968L147.938150937 299.213337031L148.2711625 298.27748625L148.409380313 296.613957344L148.45742 293.64458L148.49902 289.34308L147.88155 289.34308L147.26408 289.34308L147.26408 290.06463L147.26408 290.78617L146.8478 290.3248L146.2822325 289.844087031L145.57943 289.47536875L144.798815 289.237373594L143.99981 289.14883L143.99985 289.14883M90.293646 289.18003L89.6737295 289.25371625L89.110735 289.50612L88.448168 290.00565L88.381214 290.02864875L88.319816 289.7871L88.194535375 289.44460125L87.681531 289.36389L87.098748 289.33269L87.098748 293.60989L87.098748 297.89057L87.709282 297.89057L88.319816 297.89057L88.319816 294.96971L88.319816 292.04887L88.625083 291.44527L88.9654674375 290.934317344L89.3963315 290.57430875L89.9254890625 290.360990781L90.560754 290.29011L91.162342125 290.35351L91.663878 290.62313L92.392358 291.4418L92.615136125 292.26575875L92.649056 294.91074L92.649056 297.89057L93.249187 297.89057L93.85278 297.89057L93.89443 294.97666L93.9666135 292.44064125L94.168478 291.55628L94.5052049824 291.023678828L94.9441324844 290.6304975L95.4535149629 290.378775547L96.001606875 290.2705525L96.5566626777 290.307867891L97.0869368281 290.49276125L97.5606837832 290.827272109L97.946158 291.31344L98.254893 291.84073L98.293003 294.86565L98.327683 297.89057L98.931276 297.89057L99.531406 297.89057L99.531406 295.11194L99.403665 291.90690125L99.1847648125 291.082008594L98.809868 290.43581L98.34876175 289.9512875L97.678992 289.54775L96.912972125 289.24218375L96.093682 289.18006L94.803901875 289.42314625L93.720923 290.21032L93.294246 290.65089L92.895316 290.21032L91.847513125 289.4298025L90.539905 289.18006L90.293609 289.18006L90.293646 289.18003M104.37409 289.18003L103.113575781 289.346348438L101.98439875 289.839245L101.026729844 290.633881562L100.28074 291.70542L99.971779 292.47250625L99.919966 293.61682L99.96791025 294.742605L100.22177 295.46576L100.787228281 296.355630156L101.53218875 297.10660125L102.398114844 297.671101719L103.32647 298.00156L104.7331625 298.03835625L106.03919 297.71711L106.857294375 297.239205625L107.5126 296.66109L108.037398125 295.947546875L108.46398 295.06336L108.707385 294.27865625L108.72069 293.44683L108.489010156 292.255474531L107.95661125 291.18708625L107.152354219 290.285072344L106.1051 289.59284L105.26405625 289.24926L104.37409 289.18003L104.37409 289.18003M118.4025 289.34308L118.4025 293.61682L118.4025 297.89055L119.01304 297.89055L119.62358 297.89055L119.62358 293.61682L119.62358 289.34308L119.01304 289.34308L118.4025 289.34308L118.4025 289.34308M104.31513 290.26582L104.55101 290.27962L105.37560875 290.522204375L106.1305325 290.955735L106.764335 291.542933125L107.22557 292.24652L107.424248438 292.904480625L107.4754 293.670025L107.381711563 294.447959375L107.14587 295.14309L106.525795 296.02940375L105.66116 296.65207L104.931900781 296.887238438L104.12260625 296.934575L103.324623594 296.799031562L102.6293 296.48556L101.8742675 295.85814L101.35274 295.00779L101.079068906 293.974328125L101.15217625 292.894175L101.544972969 291.888249375L102.23037 291.07747L103.241625 290.518805L104.31522 290.26575L104.31513 290.26582M144.1386 290.30052L145.266 290.56069L146.305999531 291.293937969L146.97204625 292.21786875L147.252512344 293.307930156L147.13577 294.53957L146.856600156 295.224208125L146.39691375 295.8785575L145.825340469 296.422780625L145.21051 296.77704L143.806125 296.92403875L143.077006562 296.823925781L142.54289 296.62094L141.77837375 295.99158L141.19694 295.25071L140.9334425 294.64316L140.88473 293.67234L141.04903625 292.341085L141.70688 291.30998L142.20210375 290.876487656L142.8019075 290.55758875L144.1386 290.30052L144.1386 290.30052M113.40722 290.30352L114.12899 290.36263125L114.85031 290.59491L115.835118281 291.260564531L116.49353125 292.17654375L116.789966094 293.268673594L116.68884 294.46278L116.414067031 295.231617344L116.01720625 295.85886125L115.494797344 296.349164531L114.84338 296.70718L113.8515525 296.91593L112.78975 296.90145L111.780432656 296.508509687L110.95428125 295.7626625L110.395439219 294.769274062L110.18805 293.63371L110.449014219 292.328784375L111.15671875 291.284225L112.184881406 290.581860625L113.40722 290.30352L113.40722 290.30352M126.22844 290.30352L127.3493625 290.5201375L128.26471 291.04241L128.8964825 291.82881875L129.28458 292.63118L129.36788 293.00582L126.20768 293.00582L123.04747 293.00582L123.12377 292.64505L123.527117187 291.729114375L124.248395 290.9811675L125.183535312 290.479779375L126.22847 290.30352L126.22844 290.30352"
       style="fill:#ff0000" />
  </g>
</svg>
