  0
SECTION
  2
HEADER
  9
$ACADVER
  1
AC1014
  9
$HANDSEED
  5
FFFF
  9
$MEASUREMENT
 70
     1
  0
ENDSEC
  0
SECTION
  2
TABLES
  0
TABLE
  2
VPORT
  5
8
330
0
100
AcDbSymbolTable
 70
     4
  0
VPORT
  5
2E
330
8
100
AcDbSymbolTableRecord
100
AcDbViewportTableRecord
  2
*ACTIVE
 70
     0
 10
0.0
 20
0.0
 11
1.0
 21
1.0
 12
210.0
 22
148.5
 13
0.0
 23
0.0
 14
10.0
 24
10.0
 15
10.0
 25
10.0
 16
0.0
 26
0.0
 36
1.0
 17
0.0
 27
0.0
 37
0.0
 40
341.0
 41
1.24
 42
50.0
 43
0.0
 44
0.0
 50
0.0
 51
0.0
 71
     0
 72
   100
 73
     1
 74
     3
 75
     0
 76
     0
 77
     0
 78
     0
  0
ENDTAB
  0
TABLE
  2
LTYPE
  5
5
330
0
100
AcDbSymbolTable
 70
     1
  0
LTYPE
  5
14
330
5
100
AcDbSymbolTableRecord
100
AcDbLinetypeTableRecord
  2
BYBLOCK
 70
     0
  3

 72
    65
 73
     0
 40
0.0
  0
LTYPE
  5
15
330
5
100
AcDbSymbolTableRecord
100
AcDbLinetypeTableRecord
  2
BYLAYER
 70
     0
  3

 72
    65
 73
     0
 40
0.0
  0
LTYPE
  5
16
330
5
100
AcDbSymbolTableRecord
100
AcDbLinetypeTableRecord
  2
CONTINUOUS
 70
     0
  3
Solid line
 72
    65
 73
     0
 40
0.0
  0
ENDTAB
  0
TABLE
  2
LAYER
  5
2
100
AcDbSymbolTable
 70
2
  0
LAYER
  5
50
100
AcDbSymbolTableRecord
100
AcDbLayerTableRecord
  2
0
 70
0
  6
CONTINUOUS
  0
LAYER
  5
51
100
AcDbSymbolTableRecord
100
AcDbLayerTableRecord
  2
1._réteg
 70
0
  6
CONTINUOUS
  0
ENDTAB
  0
TABLE
  2
STYLE
  5
3
330
0
100
AcDbSymbolTable
 70
     1
  0
STYLE
  5
11
330
3
100
AcDbSymbolTableRecord
100
AcDbTextStyleTableRecord
  2
STANDARD
 70
     0
 40
0.0
 41
1.0
 50
0.0
 71
     0
 42
2.5
  3
txt
  4

  0
ENDTAB
  0
TABLE
  2
VIEW
  5
6
330
0
100
AcDbSymbolTable
 70
     0
  0
ENDTAB
  0
TABLE
  2
UCS
  5
7
330
0
100
AcDbSymbolTable
 70
     0
  0
ENDTAB
  0
TABLE
  2
APPID
  5
9
330
0
100
AcDbSymbolTable
 70
     2
  0
APPID
  5
12
330
9
100
AcDbSymbolTableRecord
100
AcDbRegAppTableRecord
  2
ACAD
 70
     0
  0
ENDTAB
  0
TABLE
  2
DIMSTYLE
  5
A
330
0
100
AcDbSymbolTable
 70
     1
  0
DIMSTYLE
105
27
330
A
100
AcDbSymbolTableRecord
100
AcDbDimStyleTableRecord
  2
ISO-25
 70
     0
  3

  4

  5

  6

  7

 40
1.0
 41
2.5
 42
0.625
 43
3.75
 44
1.25
 45
0.0
 46
0.0
 47
0.0
 48
0.0
140
2.5
141
2.5
142
0.0
143
0.03937007874016
144
1.0
145
0.0
146
1.0
147
0.625
 71
     0
 72
     0
 73
     0
 74
     0
 75
     0
 76
     0
 77
     1
 78
     8
170
     0
171
     3
172
     1
173
     0
174
     0
175
     0
176
     0
177
     0
178
     0
270
     2
271
     2
272
     2
273
     2
274
     3
340
11
275
     0
280
     0
281
     0
282
     0
283
     0
284
     8
285
     0
286
     0
287
     3
288
     0
  0
ENDTAB
  0
TABLE
  2
BLOCK_RECORD
  5
1
330
0
100
AcDbSymbolTable
 70
     1
  0
BLOCK_RECORD
  5
1F
330
1
100
AcDbSymbolTableRecord
100
AcDbBlockTableRecord
  2
*MODEL_SPACE
  0
BLOCK_RECORD
  5
1B
330
1
100
AcDbSymbolTableRecord
100
AcDbBlockTableRecord
  2
*PAPER_SPACE
  0
ENDTAB
  0
ENDSEC
  0
SECTION
  2
BLOCKS
  0
BLOCK
  5
20
330
1F
100
AcDbEntity
  8
0
100
AcDbBlockBegin
  2
*MODEL_SPACE
 70
     0
 10
0.0
 20
0.0
 30
0.0
  3
*MODEL_SPACE
  1

  0
ENDBLK
  5
21
330
1F
100
AcDbEntity
  8
0
100
AcDbBlockEnd
  0
BLOCK
  5
1C
330
1B
100
AcDbEntity
 67
     1
  8
0
100
AcDbBlockBegin
  2
*PAPER_SPACE
  1

  0
ENDBLK
  5
1D
330
1B
100
AcDbEntity
 67
     1
  8
0
100
AcDbBlockEnd
  0
ENDSEC
  0
SECTION
  2
ENTITIES
  0
LWPOLYLINE
  5
100
100
AcDbEntity
  8
1._réteg
 62
7
100
AcDbPolyline
 90
44
 70
0
 10
13.005324
 20
20.943192
 30
0.0
 10
11.917151
 20
20.818080
 30
0.0
 10
10.876338
 20
20.484976
 30
0.0
 10
9.919678
 20
19.957567
 30
0.0
 10
9.083976
 20
19.249548
 30
0.0
 10
8.802978
 20
19.043258
 30
0.0
 10
8.534644
 20
19.263103
 30
0.0
 10
7.489434
 20
20.134586
 30
0.0
 10
6.249079
 20
20.687149
 30
0.0
 10
4.905232
 20
20.919759
 30
0.0
 10
3.549550
 20
20.831395
 30
0.0
 10
2.499193
 20
20.346007
 30
0.0
 10
1.605573
 20
19.623809
 30
0.0
 10
0.879957
 20
18.723723
 30
0.0
 10
0.333612
 20
17.704681
 30
0.0
 10
0.084488
 20
17.036971
 30
0.0
 10
0.000000
 20
16.331579
 30
0.0
 10
0.079976
 20
14.901494
 30
0.0
 10
0.567836
 20
13.410173
 30
0.0
 10
1.339749
 20
12.039987
 30
0.0
 10
1.744727
 20
11.820401
 30
0.0
 10
2.202575
 20
11.748256
 30
0.0
 10
3.146017
 20
11.718668
 30
0.0
 10
4.347062
 20
11.671221
 30
0.0
 10
5.145590
 20
10.412408
 30
0.0
 10
7.006775
 20
19.078451
 30
0.0
 10
7.304040
 20
18.151650
 30
0.0
 10
7.498914
 20
17.116637
 30
0.0
 10
8.991768
 20
9.275640
 30
0.0
 10
9.444616
 20
10.461839
 30
0.0
 10
9.839112
 20
11.671221
 30
0.0
 10
13.322330
 20
11.811689
 30
0.0
 10
15.188019
 20
12.709243
 30
0.0
 10
17.119999
 20
13.442625
 30
0.0
 10
17.519973
 20
14.789816
 30
0.0
 10
17.632320
 20
16.186983
 30
0.0
 10
17.594164
 20
16.966895
 30
0.0
 10
17.365411
 20
17.706253
 30
0.0
 10
16.589605
 20
19.061484
 30
0.0
 10
15.885833
 20
19.844724
 30
0.0
 10
15.026712
 20
20.446086
 30
0.0
 10
14.052969
 20
20.825570
 30
0.0
 10
13.005324
 20
20.943192
 30
0.0
 10
13.005324
 20
20.943192
 30
0.0
  0
LWPOLYLINE
  5
101
100
AcDbEntity
  8
1._réteg
 62
7
100
AcDbPolyline
 90
37
 70
1
 10
6.385940
 20
13.236781
 30
0.0
 10
5.478807
 20
9.207545
 30
0.0
 10
4.961172
 20
9.708538
 30
0.0
 10
4.515839
 20
10.341000
 30
0.0
 10
3.953365
 20
11.069314
 30
0.0
 10
2.226467
 20
11.160080
 30
0.0
 10
2.206610
 20
10.811327
 30
0.0
 10
2.477069
 20
10.484604
 30
0.0
 10
3.127214
 20
9.870852
 30
0.0
 10
5.346992
 20
7.880929
 30
0.0
 10
6.540857
 20
6.990303
 30
0.0
 10
7.813157
 20
6.216396
 30
0.0
 10
8.643650
 20
5.893627
 30
0.0
 10
9.071772
 20
5.883552
 30
0.0
 10
9.488341
 20
6.061385
 30
0.0
 10
10.844879
 20
6.800667
 30
0.0
 10
12.100234
 20
7.694851
 30
0.0
 10
14.377666
 20
9.779632
 30
0.0
 10
15.679153
 20
11.171840
 30
0.0
 10
16.262478
 20
11.922481
 30
0.0
 10
16.746885
 20
12.677363
 30
0.0
 10
15.137137
 20
12.113449
 30
0.0
 10
13.570188
 20
11.378410
 30
0.0
 10
12.154802
 20
11.208425
 30
0.0
 10
10.723630
 20
11.163249
 30
0.0
 10
10.379268
 20
11.160427
 30
0.0
 10
10.225085
 20
11.133051
 30
0.0
 10
10.135886
 20
11.011665
 30
0.0
 10
8.737212
 20
7.788975
 30
0.0
 10
8.486889
 20
8.544382
 30
0.0
 10
8.337509
 20
9.409235
 30
0.0
 10
7.735453
 20
12.734758
 30
0.0
 10
7.456829
 20
14.464555
 30
0.0
 10
7.034119
 20
16.789338
 30
0.0
 10
6.385940
 20
13.236781
 30
0.0
 10
6.385940
 20
13.236781
 30
0.0
 10
6.385940
 20
13.236781
 30
0.0
  0
LWPOLYLINE
  5
102
100
AcDbEntity
  8
1._réteg
 62
7
100
AcDbPolyline
 90
10
 70
0
 10
9.001327
 20
4.188567
 30
0.0
 10
9.001327
 20
3.895841
 30
0.0
 10
9.023820
 20
3.581581
 30
0.0
 10
9.188296
 20
3.567865
 30
0.0
 10
9.330251
 20
3.577658
 30
0.0
 10
9.339056
 20
3.883110
 30
0.0
 10
9.347862
 20
4.188562
 30
0.0
 10
9.174575
 20
4.188562
 30
0.0
 10
9.001290
 20
4.188562
 30
0.0
 10
9.001327
 20
4.188567
 30
0.0
  0
LWPOLYLINE
  5
103
100
AcDbEntity
  8
1._réteg
 62
7
100
AcDbPolyline
 90
10
 70
0
 10
9.682255
 20
4.188574
 30
0.0
 10
9.682255
 20
2.559503
 30
0.0
 10
9.682255
 20
0.930403
 30
0.0
 10
9.854559
 20
0.930403
 30
0.0
 10
10.026867
 20
0.930403
 30
0.0
 10
10.026867
 20
2.559503
 30
0.0
 10
10.026867
 20
4.188574
 30
0.0
 10
9.854559
 20
4.188574
 30
0.0
 10
9.682255
 20
4.188574
 30
0.0
 10
9.682255
 20
4.188574
 30
0.0
  0
LWPOLYLINE
  5
104
100
AcDbEntity
  8
1._réteg
 62
7
100
AcDbPolyline
 90
36
 70
0
 10
6.446104
 20
4.185632
 30
0.0
 10
6.379045
 20
4.170819
 30
0.0
 10
6.354077
 20
4.120041
 30
0.0
 10
6.345271
 20
2.496837
 30
0.0
 10
6.354077
 20
0.946079
 30
0.0
 10
6.534213
 20
0.936286
 30
0.0
 10
6.714356
 20
0.927481
 30
0.0
 10
6.715203
 20
1.108597
 30
0.0
 10
6.716049
 20
1.290693
 30
0.0
 10
6.785561
 20
1.207476
 30
0.0
 10
7.035778
 20
1.017440
 30
0.0
 10
7.332829
 20
0.900069
 30
0.0
 10
7.631194
 20
0.877414
 30
0.0
 10
7.910657
 20
0.909909
 30
0.0
 10
8.165982
 20
0.993722
 30
0.0
 10
8.391933
 20
1.125020
 30
0.0
 10
8.583275
 20
1.299974
 30
0.0
 10
8.734772
 20
1.514751
 30
0.0
 10
8.841190
 20
1.765521
 30
0.0
 10
8.897291
 20
2.048451
 30
0.0
 10
8.897450
 20
2.249750
 30
0.0
 10
8.843446
 20
2.471386
 30
0.0
 10
8.725477
 20
2.749103
 30
0.0
 10
8.561176
 20
2.978233
 30
0.0
 10
8.348571
 20
3.160756
 30
0.0
 10
8.085691
 20
3.298653
 30
0.0
 10
7.758901
 20
3.381997
 30
0.0
 10
7.430825
 20
3.376886
 30
0.0
 10
7.121791
 20
3.286400
 30
0.0
 10
6.852131
 20
3.113617
 30
0.0
 10
6.715073
 20
2.994177
 30
0.0
 10
6.707255
 20
3.583542
 30
0.0
 10
6.698450
 20
4.172910
 30
0.0
 10
6.534959
 20
4.182703
 30
0.0
 10
6.445864
 20
4.185638
 30
0.0
 10
6.446104
 20
4.185632
 30
0.0
  0
LWPOLYLINE
  5
105
100
AcDbEntity
  8
1._réteg
 62
7
100
AcDbPolyline
 90
51
 70
0
 10
13.943900
 20
3.404392
 30
0.0
 10
13.608427
 20
3.333695
 30
0.0
 10
13.294812
 20
3.195858
 30
0.0
 10
13.158727
 20
3.105772
 30
0.0
 10
12.975598
 20
2.917389
 30
0.0
 10
12.793559
 20
2.629014
 30
0.0
 10
12.719522
 20
2.425560
 30
0.0
 10
12.706425
 20
2.118926
 30
0.0
 10
12.721950
 20
1.810711
 30
0.0
 10
12.800408
 20
1.603983
 30
0.0
 10
12.967827
 20
1.348205
 30
0.0
 10
13.182130
 20
1.137103
 30
0.0
 10
13.427074
 20
0.983461
 30
0.0
 10
13.686414
 20
0.900064
 30
0.0
 10
14.156025
 20
0.883696
 30
0.0
 10
14.566549
 20
1.000818
 30
0.0
 10
14.876591
 20
1.240114
 30
0.0
 10
15.070739
 20
1.475628
 30
0.0
 10
15.117732
 20
1.556908
 30
0.0
 10
15.165736
 20
1.611772
 30
0.0
 10
15.158571
 20
1.650917
 30
0.0
 10
14.978717
 20
1.682215
 30
0.0
 10
14.826078
 20
1.671208
 30
0.0
 10
14.774100
 20
1.627295
 30
0.0
 10
14.519558
 20
1.344367
 30
0.0
 10
14.280472
 20
1.232099
 30
0.0
 10
13.967394
 20
1.203397
 30
0.0
 10
13.715570
 20
1.218637
 30
0.0
 10
13.544461
 20
1.290434
 30
0.0
 10
13.288207
 20
1.479551
 30
0.0
 10
13.124466
 20
1.729036
 30
0.0
 10
13.051655
 20
1.935481
 30
0.0
 10
13.028182
 20
2.144326
 30
0.0
 10
13.054073
 20
2.350376
 30
0.0
 10
13.129349
 20
2.548468
 30
0.0
 10
13.317765
 20
2.808338
 30
0.0
 10
13.598298
 20
2.989017
 30
0.0
 10
13.878733
 20
3.070156
 30
0.0
 10
14.159660
 20
3.056609
 30
0.0
 10
14.425707
 20
2.951764
 30
0.0
 10
14.661505
 20
2.758865
 30
0.0
 10
14.818293
 20
2.612871
 30
0.0
 10
14.990452
 20
2.590576
 30
0.0
 10
15.164716
 20
2.605251
 30
0.0
 10
15.071340
 20
2.787962
 30
0.0
 10
14.883738
 20
3.022291
 30
0.0
 10
14.689045
 20
3.178078
 30
0.0
 10
14.454057
 20
3.299038
 30
0.0
 10
14.198948
 20
3.377072
 30
0.0
 10
13.943890
 20
3.404166
 30
0.0
 10
13.943901
 20
3.404194
 30
0.0
  0
LWPOLYLINE
  5
106
100
AcDbEntity
  8
1._réteg
 62
7
100
AcDbPolyline
 90
45
 70
0
 10
11.380839
 20
3.401456
 30
0.0
 10
11.301543
 20
3.396659
 30
0.0
 10
11.018610
 20
3.334372
 30
0.0
 10
10.763503
 20
3.215303
 30
0.0
 10
10.542534
 20
3.048312
 30
0.0
 10
10.362020
 20
2.842290
 30
0.0
 10
10.228274
 20
2.606154
 30
0.0
 10
10.147608
 20
2.348768
 30
0.0
 10
10.126340
 20
2.078991
 30
0.0
 10
10.170781
 20
1.805744
 30
0.0
 10
10.315534
 20
1.478564
 30
0.0
 10
10.534099
 20
1.206671
 30
0.0
 10
10.808660
 20
1.007168
 30
0.0
 10
11.121404
 20
0.897242
 30
0.0
 10
11.414333
 20
0.879462
 30
0.0
 10
11.707682
 20
0.926904
 30
0.0
 10
11.981036
 20
1.033894
 30
0.0
 10
12.213983
 20
1.194817
 30
0.0
 10
12.416375
 20
1.433069
 30
0.0
 10
12.547823
 20
1.674539
 30
0.0
 10
12.540045
 20
1.735075
 30
0.0
 10
12.386287
 20
1.744953
 30
0.0
 10
12.204191
 20
1.744953
 30
0.0
 10
12.126848
 20
1.600060
 30
0.0
 10
11.970250
 20
1.408544
 30
0.0
 10
11.746813
 20
1.273473
 30
0.0
 10
11.482102
 20
1.205485
 30
0.0
 10
11.201679
 20
1.215363
 30
0.0
 10
10.992827
 20
1.287556
 30
0.0
 10
10.800665
 20
1.414979
 30
0.0
 10
10.643557
 20
1.582083
 30
0.0
 10
10.539868
 20
1.773401
 30
0.0
 10
10.496004
 20
1.909348
 30
0.0
 10
10.511738
 20
1.949169
 30
0.0
 10
10.572412
 20
1.974569
 30
0.0
 10
11.561959
 20
1.995736
 30
0.0
 10
12.627125
 20
1.995736
 30
0.0
 10
12.627125
 20
2.144552
 30
0.0
 10
12.580940
 20
2.457254
 30
0.0
 10
12.459713
 20
2.751527
 30
0.0
 10
12.252307
 20
3.015884
 30
0.0
 10
11.985726
 20
3.222245
 30
0.0
 10
11.686421
 20
3.355765
 30
0.0
 10
11.380840
 20
3.401598
 30
0.0
 10
11.380840
 20
3.401598
 30
0.0
  0
LWPOLYLINE
  5
107
100
AcDbEntity
  8
1._réteg
 62
7
100
AcDbPolyline
 90
53
 70
0
 10
16.405138
 20
3.397534
 30
0.0
 10
16.206396
 20
3.378907
 30
0.0
 10
15.778140
 20
3.210533
 30
0.0
 10
15.448686
 20
2.923936
 30
0.0
 10
15.237916
 20
2.543670
 30
0.0
 10
15.165708
 20
2.094429
 30
0.0
 10
15.198463
 20
1.820250
 30
0.0
 10
15.287714
 20
1.570173
 30
0.0
 10
15.426549
 20
1.349898
 30
0.0
 10
15.608053
 20
1.165071
 30
0.0
 10
15.825313
 20
1.021420
 30
0.0
 10
16.071411
 20
0.924590
 30
0.0
 10
16.339437
 20
0.880281
 30
0.0
 10
16.622477
 20
0.894110
 30
0.0
 10
16.978255
 20
1.015465
 30
0.0
 10
17.250023
 20
1.222080
 30
0.0
 10
17.332262
 20
1.321930
 30
0.0
 10
17.312676
 20
1.133970
 30
0.0
 10
17.252057
 20
0.809894
 30
0.0
 10
17.124705
 20
0.596478
 30
0.0
 10
16.909259
 20
0.426072
 30
0.0
 10
16.639978
 20
0.334717
 30
0.0
 10
16.347993
 20
0.327944
 30
0.0
 10
16.064432
 20
0.411368
 30
0.0
 10
15.828662
 20
0.572658
 30
0.0
 10
15.671850
 20
0.796122
 30
0.0
 10
15.604307
 20
0.884514
 30
0.0
 10
15.440800
 20
0.898907
 30
0.0
 10
15.258708
 20
0.866593
 30
0.0
 10
15.350732
 20
0.651229
 30
0.0
 10
15.498174
 20
0.436317
 30
0.0
 10
15.701585
 20
0.251885
 30
0.0
 10
15.945442
 20
0.109278
 30
0.0
 10
16.214222
 20
0.019757
 30
0.0
 10
16.511206
 20
0.003106
 30
0.0
 10
16.830432
 20
0.059437
 30
0.0
 10
17.122530
 20
0.174725
 30
0.0
 10
17.338130
 20
0.334971
 30
0.0
 10
17.516613
 20
0.556910
 30
0.0
 10
17.610596
 20
0.821014
 30
0.0
 10
17.649604
 20
1.290491
 30
0.0
 10
17.663162
 20
2.128521
 30
0.0
 10
17.674902
 20
3.342500
 30
0.0
 10
17.500638
 20
3.342500
 30
0.0
 10
17.326374
 20
3.342500
 30
0.0
 10
17.326374
 20
3.138877
 30
0.0
 10
17.326374
 20
2.935225
 30
0.0
 10
17.208891
 20
3.065443
 30
0.0
 10
17.049275
 20
3.201107
 30
0.0
 10
16.850928
 20
3.305162
 30
0.0
 10
16.630621
 20
3.372331
 30
0.0
 10
16.405124
 20
3.397449
 30
0.0
 10
16.405136
 20
3.397449
 30
0.0
  0
LWPOLYLINE
  5
108
100
AcDbEntity
  8
1._réteg
 62
7
100
AcDbPolyline
 90
60
 70
0
 10
1.068384
 20
3.388718
 30
0.0
 10
0.893429
 20
3.367923
 30
0.0
 10
0.734540
 20
3.296689
 30
0.0
 10
0.547549
 20
3.155710
 30
0.0
 10
0.528653
 20
3.149219
 30
0.0
 10
0.511325
 20
3.217390
 30
0.0
 10
0.475968
 20
3.314051
 30
0.0
 10
0.331187
 20
3.336829
 30
0.0
 10
0.166712
 20
3.345634
 30
0.0
 10
0.166712
 20
2.138513
 30
0.0
 10
0.166712
 20
0.930410
 30
0.0
 10
0.339019
 20
0.930410
 30
0.0
 10
0.511325
 20
0.930410
 30
0.0
 10
0.511325
 20
1.754742
 30
0.0
 10
0.511325
 20
2.579068
 30
0.0
 10
0.597478
 20
2.749417
 30
0.0
 10
0.693542
 20
2.893620
 30
0.0
 10
0.815141
 20
2.995222
 30
0.0
 10
0.964481
 20
3.055425
 30
0.0
 10
1.143767
 20
3.075429
 30
0.0
 10
1.313549
 20
3.057536
 30
0.0
 10
1.455093
 20
2.981444
 30
0.0
 10
1.660687
 20
2.750397
 30
0.0
 10
1.723560
 20
2.517857
 30
0.0
 10
1.733133
 20
1.771385
 30
0.0
 10
1.733133
 20
0.930410
 30
0.0
 10
1.902503
 20
0.930410
 30
0.0
 10
2.072850
 20
0.930410
 30
0.0
 10
2.084605
 20
1.752781
 30
0.0
 10
2.104977
 20
2.468501
 30
0.0
 10
2.161947
 20
2.718088
 30
0.0
 10
2.256979
 20
2.868400
 30
0.0
 10
2.380854
 20
2.979364
 30
0.0
 10
2.524613
 20
3.050406
 30
0.0
 10
2.679297
 20
3.080949
 30
0.0
 10
2.835946
 20
3.070418
 30
0.0
 10
2.985601
 20
3.018236
 30
0.0
 10
3.119303
 20
2.923830
 30
0.0
 10
3.228092
 20
2.786623
 30
0.0
 10
3.315224
 20
2.637810
 30
0.0
 10
3.325980
 20
1.784110
 30
0.0
 10
3.335767
 20
0.930410
 30
0.0
 10
3.506115
 20
0.930410
 30
0.0
 10
3.675485
 20
0.930410
 30
0.0
 10
3.675485
 20
1.714602
 30
0.0
 10
3.639433
 20
2.619135
 30
0.0
 10
3.577655
 20
2.851938
 30
0.0
 10
3.471851
 20
3.034309
 30
0.0
 10
3.341716
 20
3.171052
 30
0.0
 10
3.152692
 20
3.284940
 30
0.0
 10
2.936504
 20
3.371177
 30
0.0
 10
2.705283
 20
3.388710
 30
0.0
 10
2.341278
 20
3.320106
 30
0.0
 10
2.035637
 20
3.097948
 30
0.0
 10
1.915220
 20
2.973609
 30
0.0
 10
1.802633
 20
3.097948
 30
0.0
 10
1.506919
 20
3.318227
 30
0.0
 10
1.137883
 20
3.388710
 30
0.0
 10
1.068373
 20
3.388710
 30
0.0
 10
1.068384
 20
3.388718
 30
0.0
  0
LWPOLYLINE
  5
109
100
AcDbEntity
  8
1._réteg
 62
7
100
AcDbPolyline
 90
28
 70
0
 10
5.042198
 20
3.388718
 30
0.0
 10
4.686453
 20
3.341780
 30
0.0
 10
4.367774
 20
3.202673
 30
0.0
 10
4.097498
 20
2.978409
 30
0.0
 10
3.886963
 20
2.675997
 30
0.0
 10
3.799768
 20
2.459508
 30
0.0
 10
3.785145
 20
2.136558
 30
0.0
 10
3.798676
 20
1.818836
 30
0.0
 10
3.870321
 20
1.614746
 30
0.0
 10
4.029906
 20
1.363605
 30
0.0
 10
4.240150
 20
1.151664
 30
0.0
 10
4.484534
 20
0.992349
 30
0.0
 10
4.746536
 20
0.899087
 30
0.0
 10
5.143536
 20
0.888702
 30
0.0
 10
5.512126
 20
0.979365
 30
0.0
 10
5.743013
 20
1.114240
 30
0.0
 10
5.927955
 20
1.277397
 30
0.0
 10
6.076065
 20
1.478775
 30
0.0
 10
6.196456
 20
1.728312
 30
0.0
 10
6.265150
 20
1.949773
 30
0.0
 10
6.268905
 20
2.184533
 30
0.0
 10
6.203520
 20
2.520760
 30
0.0
 10
6.053265
 20
2.822283
 30
0.0
 10
5.826286
 20
3.076851
 30
0.0
 10
5.530727
 20
3.272214
 30
0.0
 10
5.293366
 20
3.369180
 30
0.0
 10
5.042198
 20
3.388718
 30
0.0
 10
5.042198
 20
3.388718
 30
0.0
  0
LWPOLYLINE
  5
10a
100
AcDbEntity
  8
1._réteg
 62
7
100
AcDbPolyline
 90
10
 70
0
 10
9.001327
 20
3.342702
 30
0.0
 10
9.001327
 20
2.136558
 30
0.0
 10
9.001327
 20
0.930416
 30
0.0
 10
9.173635
 20
0.930416
 30
0.0
 10
9.345943
 20
0.930416
 30
0.0
 10
9.345943
 20
2.136558
 30
0.0
 10
9.345943
 20
3.342702
 30
0.0
 10
9.173635
 20
3.342702
 30
0.0
 10
9.001327
 20
3.342702
 30
0.0
 10
9.001327
 20
3.342702
 30
0.0
  0
LWPOLYLINE
  5
10b
100
AcDbEntity
  8
1._réteg
 62
7
100
AcDbPolyline
 90
25
 70
0
 10
5.025558
 20
3.082284
 30
0.0
 10
5.092128
 20
3.078390
 30
0.0
 10
5.324849
 20
3.009927
 30
0.0
 10
5.537905
 20
2.887575
 30
0.0
 10
5.716778
 20
2.721855
 30
0.0
 10
5.846949
 20
2.523287
 30
0.0
 10
5.903020
 20
2.337596
 30
0.0
 10
5.917456
 20
2.121542
 30
0.0
 10
5.891015
 20
1.901992
 30
0.0
 10
5.824456
 20
1.705810
 30
0.0
 10
5.649457
 20
1.455673
 30
0.0
 10
5.405437
 20
1.279943
 30
0.0
 10
5.199624
 20
1.213573
 30
0.0
 10
4.971223
 20
1.200214
 30
0.0
 10
4.746015
 20
1.238467
 30
0.0
 10
4.549779
 20
1.326936
 30
0.0
 10
4.336692
 20
1.504007
 30
0.0
 10
4.189506
 20
1.743995
 30
0.0
 10
4.112270
 20
2.035661
 30
0.0
 10
4.132902
 20
2.340504
 30
0.0
 10
4.243758
 20
2.624399
 30
0.0
 10
4.437192
 20
2.853219
 30
0.0
 10
4.722591
 20
3.010886
 30
0.0
 10
5.025583
 20
3.082304
 30
0.0
 10
5.025558
 20
3.082284
 30
0.0
  0
LWPOLYLINE
  5
10c
100
AcDbEntity
  8
1._réteg
 62
7
100
AcDbPolyline
 90
23
 70
0
 10
16.444296
 20
3.072498
 30
0.0
 10
16.762472
 20
2.999064
 30
0.0
 10
17.055983
 20
2.792139
 30
0.0
 10
17.243958
 20
2.531365
 30
0.0
 10
17.323110
 20
2.223743
 30
0.0
 10
17.290164
 20
1.876130
 30
0.0
 10
17.211376
 20
1.682921
 30
0.0
 10
17.081641
 20
1.498234
 30
0.0
 10
16.920331
 20
1.344649
 30
0.0
 10
16.746812
 20
1.244686
 30
0.0
 10
16.350463
 20
1.203199
 30
0.0
 10
16.144690
 20
1.231450
 30
0.0
 10
15.993950
 20
1.288741
 30
0.0
 10
15.778187
 20
1.466343
 30
0.0
 10
15.614093
 20
1.675442
 30
0.0
 10
15.539728
 20
1.846892
 30
0.0
 10
15.525981
 20
2.120901
 30
0.0
 10
15.572353
 20
2.496596
 30
0.0
 10
15.758010
 20
2.787595
 30
0.0
 10
15.897773
 20
2.909938
 30
0.0
 10
16.067051
 20
2.999939
 30
0.0
 10
16.444296
 20
3.072498
 30
0.0
 10
16.444296
 20
3.072498
 30
0.0
  0
LWPOLYLINE
  5
10d
100
AcDbEntity
  8
1._réteg
 62
7
100
AcDbPolyline
 90
22
 70
0
 10
7.591548
 20
3.071645
 30
0.0
 10
7.795247
 20
3.054962
 30
0.0
 10
7.998820
 20
2.989408
 30
0.0
 10
8.276755
 20
2.801545
 30
0.0
 10
8.462573
 20
2.543036
 30
0.0
 10
8.546234
 20
2.234812
 30
0.0
 10
8.517694
 20
1.897809
 30
0.0
 10
8.440147
 20
1.680826
 30
0.0
 10
8.328144
 20
1.503804
 30
0.0
 10
8.180708
 20
1.365429
 30
0.0
 10
7.996864
 20
1.264389
 30
0.0
 10
7.716948
 20
1.205476
 30
0.0
 10
7.417284
 20
1.209562
 30
0.0
 10
7.132432
 20
1.320459
 30
0.0
 10
6.899274
 20
1.530953
 30
0.0
 10
6.741556
 20
1.811310
 30
0.0
 10
6.683026
 20
2.131791
 30
0.0
 10
6.756676
 20
2.500070
 30
0.0
 10
6.956406
 20
2.794868
 30
0.0
 10
7.246577
 20
2.993091
 30
0.0
 10
7.591548
 20
3.071645
 30
0.0
 10
7.591548
 20
3.071645
 30
0.0
  0
LWPOLYLINE
  5
10e
100
AcDbEntity
  8
1._réteg
 62
7
100
AcDbPolyline
 90
14
 70
0
 10
11.389650
 20
3.071652
 30
0.0
 10
11.706000
 20
3.010522
 30
0.0
 10
11.964331
 20
2.863118
 30
0.0
 10
12.142631
 20
2.641178
 30
0.0
 10
12.252161
 20
2.414723
 30
0.0
 10
12.275670
 20
2.309002
 30
0.0
 10
11.383791
 20
2.309002
 30
0.0
 10
10.491911
 20
2.309002
 30
0.0
 10
10.513444
 20
2.410800
 30
0.0
 10
10.627278
 20
2.669316
 30
0.0
 10
10.830838
 20
2.880390
 30
0.0
 10
11.094756
 20
3.021896
 30
0.0
 10
11.389659
 20
3.071652
 30
0.0
 10
11.389651
 20
3.071652
 30
0.0
  0
ENDSEC
  0
SECTION
  2
OBJECTS
  0
DICTIONARY
  5
C
330
0
100
AcDbDictionary
  3
ACAD_GROUP
350
D
  3
ACAD_MLINESTYLE
350
17
  0
DICTIONARY
  5
D
330
C
100
AcDbDictionary
  0
DICTIONARY
  5
1A
330
C
100
AcDbDictionary
  0
DICTIONARY
  5
17
330
C
100
AcDbDictionary
  3
STANDARD
350
18
  0
DICTIONARY
  5
19
330
C
100
AcDbDictionary
  0
ENDSEC
  0
EOF
